<svg xmlns:dc="http://purl.org/dc/elements/1.1/" xmlns:cc="http://creativecommons.org/ns#" xmlns:rdf="http://www.w3.org/1999/02/22-rdf-syntax-ns#" xmlns:svg="http://www.w3.org/2000/svg" xmlns="http://www.w3.org/2000/svg" xmlns:sodipodi="http://sodipodi.sourceforge.net/DTD/sodipodi-0.dtd" xmlns:inkscape="http://www.inkscape.org/namespaces/inkscape" viewBox="0 0 1160 1160" width="1160" height="1160" version="1.1" id="svg26" sodipodi:docname="qr_code (1).svg" inkscape:version="0.92.5 (2060ec1f9f, 2020-04-08)">
  <metadata id="metadata32">
    <rdf:RDF>
      <cc:Work rdf:about="">
        <dc:format>image/svg+xml</dc:format>
        <dc:type rdf:resource="http://purl.org/dc/dcmitype/StillImage"/>
        <dc:title/>
      </cc:Work>
    </rdf:RDF>
  </metadata>
  <defs id="defs30"/>
  <sodipodi:namedview pagecolor="#ffffff" bordercolor="#666666" borderopacity="1" objecttolerance="10" gridtolerance="10" guidetolerance="10" inkscape:pageopacity="0" inkscape:pageshadow="2" inkscape:window-width="1920" inkscape:window-height="1016" id="namedview28" showgrid="false" inkscape:zoom="0.16388889" inkscape:cx="-143.05085" inkscape:cy="475.9322" inkscape:window-x="0" inkscape:window-y="27" inkscape:window-maximized="1" inkscape:current-layer="svg26"/>
  <rect width="1160" height="1160" rx="24" style="fill:#000000" id="rect2" x="0" y="0" ry="24"/>
  <rect x="30" y="30" width="1100" height="1100" rx="13" style="fill:#ffffff" id="rect4" ry="13"/>
  <path x="0" y="0" style="fill:#000000;shape-rendering:crispEdges" d="M 80,80 V 95.38 H 95.38 V 80 Z m 15.38,0 v 15.38 h 15.39 V 80 Z m 15.39,0 v 15.38 h 15.38 V 80 Z m 15.38,0 v 15.38 h 15.39 V 80 Z m 15.39,0 v 15.38 h 15.38 V 80 Z m 15.38,0 v 15.38 h 15.39 V 80 Z m 15.39,0 v 15.38 h 15.38 V 80 Z m 30.77,0 v 15.38 h 15.38 V 80 Z m 15.38,0 v 15.38 h 15.39 V 80 Z m 15.39,0 v 15.38 h 15.38 V 80 Z m 15.38,0 v 15.38 h 15.39 V 80 Z m 61.54,0 v 15.38 h 15.38 V 80 Z m 15.38,0 v 15.38 h 15.39 V 80 Z m 61.54,0 v 15.38 h 15.39 V 80 Z m 30.77,0 v 15.38 h 15.39 V 80 Z m 15.39,0 v 15.38 h 15.38 V 80 Z m 15.38,0 v 15.38 h 15.39 V 80 Z m 92.31,0 v 15.38 h 15.38 V 80 Z m 61.54,0 v 15.38 h 15.38 V 80 Z m 61.54,0 V 95.38 H 680 V 80 Z m 30.76,0 v 15.38 h 15.39 V 80 Z m 30.77,0 v 15.38 h 15.39 V 80 Z m 15.39,0 v 15.38 h 15.38 V 80 Z m 30.77,0 v 15.38 h 15.38 V 80 Z m 15.38,0 v 15.38 h 15.39 V 80 Z m 30.77,0 v 15.38 h 15.39 V 80 Z m 15.39,0 v 15.38 h 15.38 V 80 Z m 15.38,0 v 15.38 h 15.39 V 80 Z m 15.39,0 V 95.38 H 880 V 80 Z M 880,80 v 15.38 h 15.38 V 80 Z m 15.38,0 v 15.38 h 15.39 V 80 Z m 30.77,0 v 15.38 h 15.39 V 80 Z m 46.16,0 v 15.38 h 15.38 V 80 Z m 15.38,0 v 15.38 h 15.39 V 80 Z m 15.39,0 v 15.38 h 15.38 V 80 Z m 15.38,0 v 15.38 h 15.39 V 80 Z m 15.39,0 v 15.38 h 15.38 V 80 Z m 15.38,0 v 15.38 h 15.39 V 80 Z m 15.39,0 V 95.38 H 1080 V 80 Z M 80,95.38 v 15.39 H 95.38 V 95.38 Z m 92.31,0 v 15.39 h 15.38 V 95.38 Z m 46.15,0 v 15.39 h 15.39 V 95.38 Z m 15.39,0 v 15.39 h 15.38 V 95.38 Z m 15.38,0 v 15.39 h 15.39 V 95.38 Z m 15.39,0 v 15.39 H 280 V 95.38 Z m 15.38,0 v 15.39 h 15.38 V 95.38 Z m 46.15,0 v 15.39 h 15.39 V 95.38 Z m 30.77,0 v 15.39 h 15.39 V 95.38 Z m 46.16,0 v 15.39 h 15.38 V 95.38 Z m 30.77,0 v 15.39 h 15.38 V 95.38 Z m 15.38,0 v 15.39 h 15.39 V 95.38 Z m 30.77,0 v 15.39 h 15.38 V 95.38 Z m 15.38,0 v 15.39 h 15.39 V 95.38 Z m 30.77,0 v 15.39 h 15.39 V 95.38 Z m 76.93,0 v 15.39 h 15.38 V 95.38 Z m 30.77,0 v 15.39 h 15.38 V 95.38 Z m 15.38,0 v 15.39 h 15.39 V 95.38 Z m 30.77,0 v 15.39 h 15.38 V 95.38 Z m 15.38,0 v 15.39 h 15.39 V 95.38 Z m 15.39,0 v 15.39 h 15.38 V 95.38 Z m 46.15,0 v 15.39 h 15.39 V 95.38 Z m 61.54,0 v 15.39 h 15.39 V 95.38 Z m 123.08,0 v 15.39 h 15.38 V 95.38 Z m 30.77,0 v 15.39 h 15.38 V 95.38 Z m 92.31,0 v 15.39 H 1080 V 95.38 Z M 80,110.77 v 15.38 h 15.38 v -15.38 z m 30.77,0 v 15.38 h 15.38 v -15.38 z m 15.38,0 v 15.38 h 15.39 v -15.38 z m 15.39,0 v 15.38 h 15.38 v -15.38 z m 30.77,0 v 15.38 h 15.38 v -15.38 z m 76.92,0 v 15.38 h 15.39 v -15.38 z m 15.39,0 v 15.38 H 280 v -15.38 z m 30.76,0 v 15.38 h 15.39 v -15.38 z m 15.39,0 v 15.38 h 15.38 v -15.38 z m 46.15,0 v 15.38 h 15.39 v -15.38 z m 46.16,0 v 15.38 h 15.38 v -15.38 z m 46.15,0 v 15.38 h 15.39 v -15.38 z m 15.39,0 v 15.38 H 480 v -15.38 z m 15.38,0 v 15.38 h 15.38 v -15.38 z m 30.77,0 v 15.38 h 15.38 v -15.38 z m 15.38,0 v 15.38 h 15.39 v -15.38 z m 30.77,0 v 15.38 h 15.39 v -15.38 z m 46.16,0 v 15.38 h 15.38 v -15.38 z m 30.77,0 v 15.38 h 15.38 v -15.38 z m 30.77,0 v 15.38 H 680 v -15.38 z m 15.38,0 v 15.38 h 15.38 v -15.38 z m 15.38,0 v 15.38 h 15.39 v -15.38 z m 15.39,0 v 15.38 h 15.38 v -15.38 z m 15.38,0 v 15.38 h 15.39 v -15.38 z m 61.54,0 v 15.38 h 15.39 v -15.38 z m 61.54,0 v 15.38 h 15.39 v -15.38 z m 15.39,0 v 15.38 H 880 v -15.38 z m 15.38,0 v 15.38 h 15.38 v -15.38 z m 15.38,0 v 15.38 h 15.39 v -15.38 z m 15.39,0 v 15.38 h 15.38 v -15.38 z m 30.77,0 v 15.38 h 15.38 v -15.38 z m 30.77,0 v 15.38 h 15.38 v -15.38 z m 30.77,0 v 15.38 h 15.38 v -15.38 z m 15.38,0 v 15.38 h 15.39 v -15.38 z m 15.39,0 v 15.38 h 15.38 v -15.38 z m 30.77,0 v 15.38 H 1080 V 110.77 Z M 80,126.15 v 15.39 h 15.38 v -15.39 z m 30.77,0 v 15.39 h 15.38 v -15.39 z m 15.38,0 v 15.39 h 15.39 v -15.39 z m 15.39,0 v 15.39 h 15.38 v -15.39 z m 30.77,0 v 15.39 h 15.38 v -15.39 z m 30.77,0 v 15.39 h 15.38 v -15.39 z m 46.15,0 v 15.39 h 15.39 v -15.39 z m 15.39,0 v 15.39 H 280 v -15.39 z m 15.38,0 v 15.39 h 15.38 v -15.39 z m 46.15,0 v 15.39 h 15.39 v -15.39 z m 15.39,0 v 15.39 h 15.38 v -15.39 z m 15.38,0 v 15.39 h 15.39 v -15.39 z m 92.31,0 v 15.39 h 15.39 v -15.39 z m 15.39,0 v 15.39 H 480 v -15.39 z m 15.38,0 v 15.39 h 15.38 v -15.39 z m 61.54,0 v 15.39 h 15.38 v -15.39 z m 15.38,0 v 15.39 h 15.39 v -15.39 z m 30.77,0 v 15.39 h 15.39 v -15.39 z m 30.77,0 v 15.39 h 15.39 v -15.39 z m 15.39,0 v 15.39 h 15.38 v -15.39 z m 76.92,0 v 15.39 h 15.38 v -15.39 z m 15.38,0 v 15.39 h 15.39 v -15.39 z m 15.39,0 v 15.39 h 15.38 v -15.39 z m 46.15,0 v 15.39 h 15.39 v -15.39 z m 61.54,0 v 15.39 h 15.39 v -15.39 z m 15.39,0 v 15.39 H 880 v -15.39 z m 46.15,0 v 15.39 h 15.38 v -15.39 z m 15.38,0 v 15.39 h 15.39 v -15.39 z m 46.16,0 v 15.39 h 15.38 v -15.39 z m 30.77,0 v 15.39 h 15.38 v -15.39 z m 15.38,0 v 15.39 h 15.39 v -15.39 z m 15.39,0 v 15.39 h 15.38 v -15.39 z m 30.77,0 v 15.39 H 1080 V 126.15 Z M 80,141.54 v 15.38 h 15.38 v -15.38 z m 30.77,0 v 15.38 h 15.38 v -15.38 z m 15.38,0 v 15.38 h 15.39 v -15.38 z m 15.39,0 v 15.38 h 15.38 v -15.38 z m 30.77,0 v 15.38 h 15.38 v -15.38 z m 46.15,0 v 15.38 h 15.39 v -15.38 z m 30.77,0 v 15.38 h 15.39 v -15.38 z m 15.39,0 v 15.38 H 280 v -15.38 z m 15.38,0 v 15.38 h 15.38 v -15.38 z m 15.38,0 v 15.38 h 15.39 v -15.38 z m 76.93,0 v 15.38 h 15.38 v -15.38 z m 30.77,0 v 15.38 h 15.38 v -15.38 z m 30.77,0 v 15.38 h 15.38 v -15.38 z m 46.15,0 v 15.38 h 15.38 v -15.38 z m 30.77,0 v 15.38 h 15.38 v -15.38 z m 30.77,0 v 15.38 h 15.38 v -15.38 z m 15.38,0 v 15.38 h 15.39 v -15.38 z m 15.39,0 v 15.38 h 15.38 v -15.38 z m 15.38,0 v 15.38 h 15.39 v -15.38 z m 15.39,0 v 15.38 h 15.38 v -15.38 z m 15.38,0 v 15.38 h 15.39 v -15.38 z m 15.39,0 v 15.38 h 15.38 v -15.38 z m 61.53,0 v 15.38 h 15.39 v -15.38 z m 30.77,0 v 15.38 h 15.39 v -15.38 z m 15.39,0 v 15.38 h 15.38 v -15.38 z m 15.38,0 v 15.38 h 15.39 v -15.38 z m 61.54,0 v 15.38 h 15.39 v -15.38 z m 61.54,0 v 15.38 h 15.38 v -15.38 z m 15.38,0 v 15.38 h 15.39 v -15.38 z m 46.16,0 v 15.38 h 15.38 v -15.38 z m 30.77,0 v 15.38 h 15.38 v -15.38 z m 30.77,0 v 15.38 h 15.38 v -15.38 z m 15.38,0 v 15.38 h 15.39 v -15.38 z m 15.39,0 v 15.38 h 15.38 v -15.38 z m 30.77,0 v 15.38 H 1080 V 141.54 Z M 80,156.92 v 15.39 h 15.38 v -15.39 z m 92.31,0 v 15.39 h 15.38 v -15.39 z m 30.77,0 v 15.39 h 15.38 v -15.39 z m 107.69,0 v 15.39 h 15.38 v -15.39 z m 30.77,0 v 15.39 h 15.38 v -15.39 z m 15.38,0 v 15.39 h 15.39 v -15.39 z m 30.77,0 v 15.39 h 15.39 v -15.39 z m 123.08,0 v 15.39 h 15.38 v -15.39 z m 30.77,0 v 15.39 h 15.38 v -15.39 z m 61.54,0 v 15.39 h 15.38 v -15.39 z m 46.15,0 v 15.39 h 15.39 v -15.39 z m 46.15,0 v 15.39 h 15.39 v -15.39 z m 30.77,0 v 15.39 h 15.39 v -15.39 z m 30.77,0 v 15.39 h 15.39 v -15.39 z m 15.39,0 v 15.39 h 15.38 v -15.39 z m 15.38,0 v 15.39 h 15.39 v -15.39 z m 15.39,0 v 15.39 h 15.38 v -15.39 z m 46.15,0 v 15.39 h 15.39 v -15.39 z m 15.39,0 v 15.39 H 880 v -15.39 z m 15.38,0 v 15.39 h 15.38 v -15.39 z m 30.77,0 v 15.39 h 15.38 v -15.39 z m 61.54,0 v 15.39 h 15.38 v -15.39 z m 92.31,0 v 15.39 H 1080 V 156.92 Z M 80,172.31 v 15.38 h 15.38 v -15.38 z m 15.38,0 v 15.38 h 15.39 v -15.38 z m 15.39,0 v 15.38 h 15.38 v -15.38 z m 15.38,0 v 15.38 h 15.39 v -15.38 z m 15.39,0 v 15.38 h 15.38 v -15.38 z m 15.38,0 v 15.38 h 15.39 v -15.38 z m 15.39,0 v 15.38 h 15.38 v -15.38 z m 30.77,0 v 15.38 h 15.38 v -15.38 z m 30.77,0 v 15.38 h 15.38 v -15.38 z m 30.77,0 v 15.38 H 280 v -15.38 z m 30.76,0 v 15.38 h 15.39 v -15.38 z m 30.77,0 v 15.38 h 15.39 v -15.38 z m 30.77,0 v 15.38 h 15.39 v -15.38 z m 30.77,0 v 15.38 h 15.39 v -15.38 z m 30.77,0 v 15.38 h 15.39 v -15.38 z m 30.77,0 v 15.38 h 15.39 v -15.38 z m 30.77,0 v 15.38 h 15.38 v -15.38 z m 30.77,0 v 15.38 h 15.38 v -15.38 z m 30.77,0 v 15.38 h 15.38 v -15.38 z m 30.77,0 v 15.38 h 15.38 v -15.38 z m 30.77,0 v 15.38 h 15.38 v -15.38 z m 30.77,0 v 15.38 h 15.38 v -15.38 z m 30.77,0 v 15.38 H 680 v -15.38 z m 30.76,0 v 15.38 h 15.39 v -15.38 z m 30.77,0 v 15.38 h 15.39 v -15.38 z m 30.77,0 v 15.38 h 15.39 v -15.38 z m 30.77,0 v 15.38 h 15.39 v -15.38 z m 30.77,0 v 15.38 h 15.39 v -15.38 z m 30.77,0 v 15.38 h 15.39 v -15.38 z m 30.77,0 v 15.38 h 15.38 v -15.38 z m 30.77,0 v 15.38 h 15.38 v -15.38 z m 30.77,0 v 15.38 h 15.38 v -15.38 z m 30.77,0 v 15.38 h 15.38 v -15.38 z m 15.38,0 v 15.38 h 15.39 v -15.38 z m 15.39,0 v 15.38 h 15.38 v -15.38 z m 15.38,0 v 15.38 h 15.39 v -15.38 z m 15.39,0 v 15.38 h 15.38 v -15.38 z m 15.38,0 v 15.38 h 15.39 v -15.38 z m 15.39,0 v 15.38 H 1080 v -15.38 z m -846.16,15.38 v 15.39 h 15.39 v -15.39 z m 30.77,0 v 15.39 h 15.39 v -15.39 z m 138.46,0 v 15.39 h 15.39 v -15.39 z m 30.77,0 v 15.39 h 15.39 v -15.39 z m 15.39,0 v 15.39 h 15.38 v -15.39 z m 46.15,0 v 15.39 h 15.38 v -15.39 z m 15.38,0 v 15.39 h 15.39 v -15.39 z m 46.16,0 v 15.39 h 15.38 v -15.39 z m 61.54,0 v 15.39 h 15.38 v -15.39 z m 15.38,0 v 15.39 h 15.39 v -15.39 z m 15.39,0 v 15.39 h 15.38 v -15.39 z m 46.15,0 v 15.39 h 15.38 v -15.39 z m 30.77,0 v 15.39 h 15.38 v -15.39 z m 15.38,0 v 15.39 h 15.39 v -15.39 z m 15.39,0 v 15.39 h 15.38 v -15.39 z m 76.92,0 v 15.39 h 15.39 v -15.39 z m 15.39,0 v 15.39 h 15.38 v -15.39 z m 15.38,0 v 15.39 h 15.39 v -15.39 z m 15.39,0 v 15.39 H 880 v -15.39 z m 30.76,0 v 15.39 h 15.39 v -15.39 z m 46.16,0 v 15.39 h 15.38 v -15.39 z m -784.62,15.39 v 15.38 h 15.39 v -15.38 z m 15.39,0 v 15.38 h 15.38 v -15.38 z m 30.77,0 v 15.38 h 15.38 v -15.38 z m 30.77,0 v 15.38 h 15.38 v -15.38 z m 15.38,0 v 15.38 h 15.39 v -15.38 z m 15.39,0 v 15.38 H 280 v -15.38 z m 15.38,0 v 15.38 h 15.38 v -15.38 z m 15.38,0 v 15.38 h 15.39 v -15.38 z m 15.39,0 v 15.38 h 15.38 v -15.38 z m 15.38,0 v 15.38 h 15.39 v -15.38 z m 30.77,0 v 15.38 h 15.39 v -15.38 z m 15.39,0 v 15.38 h 15.38 v -15.38 z m 15.38,0 v 15.38 h 15.39 v -15.38 z m 30.77,0 v 15.38 h 15.39 v -15.38 z m 46.16,0 v 15.38 H 480 v -15.38 z m 46.15,0 v 15.38 h 15.38 v -15.38 z m 15.38,0 v 15.38 h 15.39 v -15.38 z m 15.39,0 v 15.38 h 15.38 v -15.38 z m 15.38,0 v 15.38 h 15.39 v -15.38 z m 15.39,0 v 15.38 h 15.38 v -15.38 z m 15.38,0 v 15.38 h 15.39 v -15.38 z m 15.39,0 v 15.38 h 15.38 v -15.38 z m 30.77,0 v 15.38 h 15.38 v -15.38 z m 107.69,0 v 15.38 h 15.38 v -15.38 z m 15.38,0 v 15.38 h 15.39 v -15.38 z m 15.39,0 v 15.38 h 15.38 v -15.38 z m 46.15,0 v 15.38 h 15.39 v -15.38 z m 30.77,0 v 15.38 h 15.39 v -15.38 z m 61.54,0 v 15.38 h 15.38 v -15.38 z m 30.77,0 v 15.38 h 15.38 v -15.38 z m 15.38,0 v 15.38 h 15.39 v -15.38 z m 30.77,0 v 15.38 h 15.39 v -15.38 z m 30.77,0 v 15.38 h 15.39 v -15.38 z m 46.16,0 v 15.38 H 1080 V 203.08 Z M 80,218.46 v 15.39 h 15.38 v -15.39 z m 76.92,0 v 15.39 h 15.39 v -15.39 z m 46.16,0 v 15.39 h 15.38 v -15.39 z m 15.38,0 v 15.39 h 15.39 v -15.39 z m 15.39,0 v 15.39 h 15.38 v -15.39 z m 46.15,0 v 15.39 h 15.38 v -15.39 z m 30.77,0 v 15.39 h 15.38 v -15.39 z m 61.54,0 v 15.39 h 15.38 v -15.39 z m 15.38,0 v 15.39 h 15.39 v -15.39 z m 15.39,0 v 15.39 h 15.38 v -15.39 z m 15.38,0 v 15.39 h 15.39 v -15.39 z m 30.77,0 v 15.39 h 15.39 v -15.39 z m 30.77,0 v 15.39 h 15.38 v -15.39 z m 76.92,0 v 15.39 h 15.39 v -15.39 z m 15.39,0 v 15.39 h 15.38 v -15.39 z m 30.77,0 v 15.39 h 15.38 v -15.39 z m 15.38,0 v 15.39 h 15.39 v -15.39 z m 46.16,0 v 15.39 H 680 v -15.39 z m 30.76,0 v 15.39 h 15.39 v -15.39 z m 15.39,0 v 15.39 h 15.38 v -15.39 z m 15.38,0 v 15.39 h 15.39 v -15.39 z m 15.39,0 v 15.39 h 15.38 v -15.39 z m 15.38,0 v 15.39 h 15.39 v -15.39 z m 15.39,0 v 15.39 h 15.38 v -15.39 z m 15.38,0 v 15.39 h 15.39 v -15.39 z m 15.39,0 v 15.39 h 15.38 v -15.39 z m 15.38,0 v 15.39 h 15.39 v -15.39 z m 15.39,0 v 15.39 h 15.38 v -15.39 z m 46.15,0 v 15.39 h 15.38 v -15.39 z m 15.38,0 v 15.39 h 15.39 v -15.39 z m 15.39,0 v 15.39 h 15.38 v -15.39 z m 30.77,0 v 15.39 h 15.38 v -15.39 z m 15.38,0 v 15.39 h 15.39 v -15.39 z m 61.54,0 v 15.39 h 15.39 v -15.39 z m 30.77,0 v 15.39 h 15.39 V 218.46 Z M 80,233.85 v 15.38 h 15.38 v -15.38 z m 15.38,0 v 15.38 h 15.39 v -15.38 z m 30.77,0 v 15.38 h 15.39 v -15.38 z m 30.77,0 v 15.38 h 15.39 v -15.38 z m 15.39,0 v 15.38 h 15.38 v -15.38 z m 15.38,0 v 15.38 h 15.39 v -15.38 z m 15.39,0 v 15.38 h 15.38 v -15.38 z m 15.38,0 v 15.38 h 15.39 v -15.38 z m 30.77,0 v 15.38 h 15.39 v -15.38 z m 30.77,0 v 15.38 h 15.38 v -15.38 z m 15.38,0 v 15.38 h 15.39 v -15.38 z m 61.54,0 v 15.38 h 15.39 v -15.38 z m 15.39,0 v 15.38 h 15.38 v -15.38 z m 15.38,0 v 15.38 h 15.39 v -15.38 z m 15.39,0 v 15.38 h 15.38 v -15.38 z m 30.77,0 v 15.38 h 15.38 v -15.38 z m 30.77,0 v 15.38 H 480 v -15.38 z m 46.15,0 v 15.38 h 15.38 v -15.38 z m 15.38,0 v 15.38 h 15.39 v -15.38 z m 15.39,0 v 15.38 h 15.38 v -15.38 z m 46.15,0 v 15.38 h 15.39 v -15.38 z m 15.39,0 v 15.38 h 15.38 v -15.38 z m 46.15,0 v 15.38 h 15.39 v -15.38 z m 46.15,0 v 15.38 h 15.39 v -15.38 z m 15.39,0 v 15.38 h 15.38 v -15.38 z m 15.38,0 v 15.38 h 15.39 v -15.38 z m 46.16,0 v 15.38 h 15.38 v -15.38 z m 15.38,0 v 15.38 h 15.39 v -15.38 z m 15.39,0 v 15.38 h 15.38 v -15.38 z m 61.54,0 v 15.38 H 880 v -15.38 z m 15.38,0 v 15.38 h 15.38 v -15.38 z m 15.38,0 v 15.38 h 15.39 v -15.38 z m 15.39,0 v 15.38 h 15.38 v -15.38 z m 61.54,0 v 15.38 h 15.38 v -15.38 z m 15.38,0 v 15.38 h 15.39 v -15.38 z m 15.39,0 v 15.38 h 15.38 v -15.38 z m 15.38,0 v 15.38 h 15.39 v -15.38 z m 15.39,0 v 15.38 h 15.38 v -15.38 z m 30.77,0 v 15.38 H 1080 v -15.38 z m -953.85,15.38 v 15.39 h 15.38 v -15.39 z m 30.77,0 v 15.39 h 15.38 v -15.39 z m 15.38,0 v 15.39 h 15.39 v -15.39 z m 46.16,0 v 15.39 h 15.38 v -15.39 z m 15.38,0 v 15.39 h 15.39 v -15.39 z m 46.16,0 v 15.39 H 280 v -15.39 z m 15.38,0 v 15.39 h 15.38 v -15.39 z m 46.15,0 v 15.39 h 15.39 v -15.39 z m 46.16,0 v 15.39 h 15.38 v -15.39 z m 30.77,0 v 15.39 h 15.38 v -15.39 z m 15.38,0 v 15.39 h 15.39 v -15.39 z m 15.39,0 v 15.39 h 15.38 v -15.39 z m 15.38,0 v 15.39 h 15.39 v -15.39 z m 30.77,0 v 15.39 h 15.38 v -15.39 z m 61.54,0 v 15.39 h 15.38 v -15.39 z m 15.38,0 v 15.39 h 15.39 v -15.39 z m 15.39,0 v 15.39 h 15.38 v -15.39 z m 15.38,0 v 15.39 h 15.39 v -15.39 z m 46.16,0 v 15.39 h 15.38 v -15.39 z m 30.77,0 v 15.39 H 680 v -15.39 z m 46.15,0 v 15.39 h 15.38 v -15.39 z m 15.38,0 v 15.39 h 15.39 v -15.39 z m 15.39,0 v 15.39 h 15.38 v -15.39 z m 46.15,0 v 15.39 h 15.39 v -15.39 z m 15.39,0 v 15.39 h 15.38 v -15.39 z m 15.38,0 v 15.39 h 15.39 v -15.39 z m 15.39,0 v 15.39 h 15.38 v -15.39 z m 15.38,0 v 15.39 h 15.39 v -15.39 z m 46.15,0 v 15.39 h 15.39 v -15.39 z m 46.16,0 v 15.39 h 15.38 v -15.39 z m 15.38,0 v 15.39 h 15.39 v -15.39 z m 30.77,0 v 15.39 h 15.39 v -15.39 z m 15.39,0 v 15.39 h 15.38 v -15.39 z m 15.38,0 v 15.39 h 15.39 v -15.39 z m 15.39,0 v 15.39 h 15.38 V 249.23 Z M 95.38,264.62 V 280 h 15.39 v -15.38 z m 15.39,0 V 280 h 15.38 v -15.38 z m 30.77,0 V 280 h 15.38 v -15.38 z m 30.77,0 V 280 h 15.38 v -15.38 z m 15.38,0 V 280 h 15.39 v -15.38 z m 30.77,0 V 280 h 15.39 v -15.38 z m 15.39,0 V 280 h 15.38 v -15.38 z m 15.38,0 V 280 h 15.39 v -15.38 z m 30.77,0 V 280 h 15.38 v -15.38 z m 30.77,0 V 280 h 15.38 v -15.38 z m 30.77,0 V 280 h 15.38 v -15.38 z m 61.54,0 V 280 h 15.38 v -15.38 z m 107.69,0 V 280 h 15.38 v -15.38 z m 15.38,0 V 280 h 15.39 v -15.38 z m 30.77,0 V 280 h 15.39 v -15.38 z m 30.77,0 V 280 h 15.39 v -15.38 z m 46.16,0 V 280 h 15.38 v -15.38 z m 15.38,0 V 280 h 15.39 v -15.38 z m 15.39,0 V 280 H 680 v -15.38 z m 46.15,0 V 280 h 15.38 v -15.38 z m 15.38,0 V 280 h 15.39 v -15.38 z m 15.39,0 V 280 h 15.38 v -15.38 z m 46.15,0 V 280 h 15.39 v -15.38 z m 15.39,0 V 280 h 15.38 v -15.38 z m 30.77,0 V 280 h 15.38 v -15.38 z m 46.15,0 V 280 h 15.38 v -15.38 z m 15.38,0 V 280 h 15.39 v -15.38 z m 15.39,0 V 280 h 15.38 v -15.38 z m 15.38,0 V 280 h 15.39 v -15.38 z m 138.47,0 V 280 H 1080 V 264.62 Z M 80,280 v 15.38 H 95.38 V 280 Z m 15.38,0 v 15.38 h 15.39 V 280 Z m 15.39,0 v 15.38 h 15.38 V 280 Z m 30.77,0 v 15.38 h 15.38 V 280 Z m 61.54,0 v 15.38 h 15.38 V 280 Z m 30.77,0 v 15.38 h 15.38 V 280 Z m 15.38,0 v 15.38 h 15.39 V 280 Z m 15.39,0 v 15.38 H 280 V 280 Z m 15.38,0 v 15.38 h 15.38 V 280 Z m 46.15,0 v 15.38 h 15.39 V 280 Z m 15.39,0 v 15.38 h 15.38 V 280 Z m 15.38,0 v 15.38 h 15.39 V 280 Z m 61.54,0 v 15.38 h 15.39 V 280 Z m 30.77,0 v 15.38 h 15.39 V 280 Z m 15.39,0 v 15.38 H 480 V 280 Z m 15.38,0 v 15.38 h 15.38 V 280 Z m 30.77,0 v 15.38 h 15.38 V 280 Z m 15.38,0 v 15.38 h 15.39 V 280 Z m 15.39,0 v 15.38 h 15.38 V 280 Z m 61.54,0 v 15.38 h 15.38 V 280 Z m 107.69,0 v 15.38 h 15.38 V 280 Z m 15.38,0 v 15.38 h 15.39 V 280 Z m 30.77,0 v 15.38 h 15.39 V 280 Z m 15.39,0 v 15.38 h 15.38 V 280 Z m 15.38,0 v 15.38 h 15.39 V 280 Z m 15.39,0 v 15.38 h 15.38 V 280 Z m 15.38,0 v 15.38 h 15.39 V 280 Z m 46.16,0 v 15.38 H 880 V 280 Z m 46.15,0 v 15.38 h 15.38 V 280 Z m 15.38,0 v 15.38 h 15.39 V 280 Z m 30.77,0 v 15.38 h 15.39 V 280 Z m 15.39,0 v 15.38 h 15.38 V 280 Z m 15.38,0 v 15.38 h 15.39 V 280 Z m 15.39,0 v 15.38 h 15.38 V 280 Z m 30.77,0 v 15.38 h 15.38 V 280 Z m 30.77,0 v 15.38 H 1080 V 280 Z M 80,295.38 v 15.39 h 15.38 v -15.39 z m 30.77,0 v 15.39 h 15.38 v -15.39 z m 15.38,0 v 15.39 h 15.39 v -15.39 z m 15.39,0 v 15.39 h 15.38 v -15.39 z m 15.38,0 v 15.39 h 15.39 v -15.39 z m 15.39,0 v 15.39 h 15.38 v -15.39 z m 15.38,0 v 15.39 h 15.39 v -15.39 z m 15.39,0 v 15.39 h 15.38 v -15.39 z m 30.77,0 v 15.39 h 15.38 v -15.39 z m 30.77,0 v 15.39 H 280 v -15.39 z m 30.76,0 v 15.39 h 15.39 v -15.39 z m 30.77,0 v 15.39 h 15.39 v -15.39 z m 30.77,0 v 15.39 h 15.39 v -15.39 z m 30.77,0 v 15.39 h 15.39 v -15.39 z m 15.39,0 v 15.39 h 15.38 v -15.39 z m 15.38,0 v 15.39 h 15.39 v -15.39 z m 46.16,0 v 15.39 H 480 v -15.39 z m 46.15,0 v 15.39 h 15.38 v -15.39 z m 30.77,0 v 15.39 h 15.38 v -15.39 z m 15.38,0 v 15.39 h 15.39 v -15.39 z m 15.39,0 v 15.39 h 15.38 v -15.39 z m 15.38,0 v 15.39 h 15.39 v -15.39 z m 15.39,0 v 15.39 h 15.38 v -15.39 z m 15.38,0 v 15.39 h 15.39 v -15.39 z m 15.39,0 v 15.39 h 15.38 v -15.39 z m 61.53,0 v 15.39 h 15.39 v -15.39 z m 30.77,0 v 15.39 h 15.39 v -15.39 z m 61.54,0 v 15.39 h 15.39 v -15.39 z m 15.39,0 v 15.39 h 15.38 v -15.39 z m 15.38,0 v 15.39 h 15.39 v -15.39 z m 46.16,0 v 15.39 H 880 v -15.39 z m 15.38,0 v 15.39 h 15.38 v -15.39 z m 15.38,0 v 15.39 h 15.39 v -15.39 z m 30.77,0 v 15.39 h 15.39 v -15.39 z m 61.54,0 v 15.39 h 15.39 v -15.39 z m 15.39,0 v 15.39 h 15.38 v -15.39 z m 15.38,0 v 15.39 h 15.39 v -15.39 z m 15.39,0 v 15.39 h 15.38 v -15.39 z m 15.38,0 v 15.39 h 15.39 v -15.39 z m -938.46,15.39 v 15.38 h 15.38 v -15.38 z m 15.38,0 v 15.38 h 15.39 v -15.38 z m 30.77,0 v 15.38 h 15.39 v -15.38 z m 46.16,0 v 15.38 h 15.38 v -15.38 z m 76.92,0 v 15.38 h 15.38 v -15.38 z m 15.38,0 v 15.38 h 15.39 v -15.38 z m 61.54,0 v 15.38 h 15.39 v -15.38 z m 46.16,0 v 15.38 h 15.38 v -15.38 z m 30.77,0 v 15.38 h 15.38 v -15.38 z m 15.38,0 v 15.38 h 15.39 v -15.38 z m 30.77,0 v 15.38 h 15.38 v -15.38 z m 15.38,0 v 15.38 h 15.39 v -15.38 z m 15.39,0 v 15.38 h 15.38 v -15.38 z m 107.69,0 v 15.38 h 15.39 v -15.38 z m 15.39,0 v 15.38 h 15.38 v -15.38 z m 15.38,0 v 15.38 h 15.39 v -15.38 z m 15.39,0 v 15.38 H 680 v -15.38 z m 61.53,0 v 15.38 h 15.39 v -15.38 z m 15.39,0 v 15.38 h 15.38 v -15.38 z m 30.77,0 v 15.38 h 15.38 v -15.38 z m 15.38,0 v 15.38 h 15.39 v -15.38 z m 15.39,0 v 15.38 h 15.38 v -15.38 z m 30.77,0 v 15.38 h 15.38 v -15.38 z m 15.38,0 v 15.38 h 15.39 v -15.38 z m 15.39,0 v 15.38 H 880 v -15.38 z m 30.76,0 v 15.38 h 15.39 v -15.38 z m 30.77,0 v 15.38 h 15.39 v -15.38 z m 61.54,0 v 15.38 h 15.39 v -15.38 z m 15.39,0 v 15.38 h 15.38 v -15.38 z m 15.38,0 v 15.38 h 15.39 v -15.38 z m 30.77,0 v 15.38 h 15.39 V 310.77 Z M 95.38,326.15 v 15.39 h 15.39 v -15.39 z m 15.39,0 v 15.39 h 15.38 v -15.39 z m 46.15,0 v 15.39 h 15.39 v -15.39 z m 15.39,0 v 15.39 h 15.38 v -15.39 z m 15.38,0 v 15.39 h 15.39 v -15.39 z m 61.54,0 v 15.39 h 15.39 v -15.39 z m 30.77,0 v 15.39 h 15.38 v -15.39 z m 30.77,0 v 15.39 h 15.38 v -15.39 z m 15.38,0 v 15.39 h 15.39 v -15.39 z m 46.16,0 v 15.39 h 15.38 v -15.39 z m 15.38,0 v 15.39 h 15.39 v -15.39 z m 15.39,0 v 15.39 h 15.38 v -15.39 z m 15.38,0 v 15.39 h 15.39 v -15.39 z m 15.39,0 v 15.39 h 15.38 v -15.39 z m 15.38,0 v 15.39 h 15.39 v -15.39 z m 61.54,0 v 15.39 h 15.38 v -15.39 z m 15.38,0 v 15.39 h 15.39 v -15.39 z m 15.39,0 v 15.39 h 15.38 v -15.39 z m 15.38,0 v 15.39 h 15.39 v -15.39 z m 30.77,0 v 15.39 h 15.39 v -15.39 z m 30.77,0 v 15.39 h 15.39 v -15.39 z m 15.39,0 v 15.39 h 15.38 v -15.39 z m 30.77,0 v 15.39 H 680 v -15.39 z m 30.76,0 v 15.39 h 15.39 v -15.39 z m 15.39,0 v 15.39 h 15.38 v -15.39 z m 15.38,0 v 15.39 h 15.39 v -15.39 z m 123.08,0 v 15.39 h 15.39 v -15.39 z m 92.31,0 v 15.39 h 15.38 v -15.39 z m 15.38,0 v 15.39 h 15.39 v -15.39 z m 46.16,0 v 15.39 h 15.38 v -15.39 z m 15.38,0 v 15.39 h 15.39 v -15.39 z m 30.77,0 v 15.39 h 15.39 v -15.39 z m 15.39,0 v 15.39 H 1080 V 326.15 Z M 95.38,341.54 v 15.38 h 15.39 v -15.38 z m 138.47,0 v 15.38 h 15.38 v -15.38 z m 30.77,0 v 15.38 H 280 v -15.38 z m 15.38,0 v 15.38 h 15.38 v -15.38 z m 30.77,0 v 15.38 h 15.38 v -15.38 z m 15.38,0 v 15.38 h 15.39 v -15.38 z m 30.77,0 v 15.38 h 15.39 v -15.38 z m 15.39,0 v 15.38 h 15.38 v -15.38 z m 30.77,0 v 15.38 h 15.38 v -15.38 z m 15.38,0 v 15.38 h 15.39 v -15.38 z m 15.39,0 v 15.38 h 15.38 v -15.38 z m 61.53,0 v 15.38 h 15.39 v -15.38 z m 46.16,0 v 15.38 h 15.38 v -15.38 z m 15.38,0 v 15.38 h 15.39 v -15.38 z m 15.39,0 v 15.38 h 15.38 v -15.38 z m 30.77,0 v 15.38 h 15.38 v -15.38 z m 46.15,0 v 15.38 h 15.39 v -15.38 z m 30.77,0 v 15.38 h 15.38 v -15.38 z m 76.92,0 v 15.38 h 15.39 v -15.38 z m 46.16,0 v 15.38 h 15.38 v -15.38 z m 15.38,0 v 15.38 h 15.39 v -15.38 z m 46.16,0 v 15.38 H 880 v -15.38 z m 15.38,0 v 15.38 h 15.38 v -15.38 z m 30.77,0 v 15.38 h 15.38 v -15.38 z m 30.77,0 v 15.38 h 15.38 v -15.38 z m 30.77,0 v 15.38 h 15.38 v -15.38 z m 76.92,0 v 15.38 h 15.39 v -15.38 z m -923.08,15.38 v 15.39 h 15.39 v -15.39 z m 46.16,0 v 15.39 h 15.38 v -15.39 z m 15.38,0 v 15.39 h 15.39 v -15.39 z m 46.16,0 v 15.39 h 15.38 v -15.39 z m 15.38,0 v 15.39 h 15.39 v -15.39 z m 76.92,0 v 15.39 h 15.39 v -15.39 z m 15.39,0 v 15.39 h 15.38 v -15.39 z m 15.38,0 v 15.39 h 15.39 v -15.39 z m 15.39,0 v 15.39 h 15.38 v -15.39 z m 30.77,0 v 15.39 h 15.38 v -15.39 z m 15.38,0 v 15.39 h 15.39 v -15.39 z m 15.39,0 v 15.39 h 15.38 v -15.39 z m 30.77,0 v 15.39 H 480 v -15.39 z m 30.76,0 v 15.39 h 15.39 v -15.39 z m 46.16,0 v 15.39 h 15.38 v -15.39 z m 46.15,0 v 15.39 h 15.39 v -15.39 z m 15.39,0 v 15.39 h 15.38 v -15.39 z m 15.38,0 v 15.39 h 15.39 v -15.39 z m 15.39,0 v 15.39 h 15.38 v -15.39 z m 15.38,0 v 15.39 h 15.39 v -15.39 z m 30.77,0 v 15.39 h 15.38 v -15.39 z m 15.38,0 v 15.39 h 15.39 v -15.39 z m 61.54,0 v 15.39 h 15.39 v -15.39 z m 15.39,0 v 15.39 h 15.38 v -15.39 z m 30.77,0 v 15.39 h 15.38 v -15.39 z m 15.38,0 v 15.39 h 15.39 v -15.39 z m 46.16,0 v 15.39 H 880 v -15.39 z m 107.69,0 v 15.39 h 15.38 v -15.39 z m 15.38,0 v 15.39 h 15.39 v -15.39 z m 15.39,0 v 15.39 h 15.38 v -15.39 z m 61.54,0 v 15.39 H 1080 V 356.92 Z M 95.38,372.31 v 15.38 h 15.39 v -15.38 z m 46.16,0 v 15.38 h 15.38 v -15.38 z m 46.15,0 v 15.38 h 15.39 v -15.38 z m 15.39,0 v 15.38 h 15.38 v -15.38 z m 15.38,0 v 15.38 h 15.39 v -15.38 z m 15.39,0 v 15.38 h 15.38 v -15.38 z m 15.38,0 v 15.38 h 15.39 v -15.38 z m 46.15,0 v 15.38 h 15.39 v -15.38 z m 30.77,0 v 15.38 h 15.39 v -15.38 z m 30.77,0 v 15.38 h 15.39 v -15.38 z m 46.16,0 v 15.38 h 15.38 v -15.38 z m 15.38,0 v 15.38 h 15.39 v -15.38 z m 61.54,0 v 15.38 h 15.38 v -15.38 z m 15.38,0 v 15.38 h 15.39 v -15.38 z m 61.54,0 v 15.38 h 15.39 v -15.38 z m 15.39,0 v 15.38 h 15.38 v -15.38 z m 15.38,0 v 15.38 h 15.39 v -15.38 z m 46.16,0 v 15.38 h 15.38 v -15.38 z m 61.53,0 v 15.38 h 15.39 v -15.38 z m 15.39,0 v 15.38 h 15.38 v -15.38 z m 15.38,0 v 15.38 h 15.39 v -15.38 z m 46.16,0 v 15.38 h 15.38 v -15.38 z m 30.77,0 v 15.38 h 15.38 v -15.38 z m 30.77,0 v 15.38 h 15.38 v -15.38 z m 46.15,0 v 15.38 h 15.38 v -15.38 z m 30.77,0 v 15.38 h 15.38 v -15.38 z m 15.38,0 v 15.38 h 15.39 v -15.38 z m 15.39,0 v 15.38 h 15.38 v -15.38 z m 15.38,0 v 15.38 h 15.39 v -15.38 z m 15.39,0 v 15.38 h 15.38 v -15.38 z m 15.38,0 v 15.38 h 15.39 v -15.38 z m 30.77,0 v 15.38 h 15.39 v -15.38 z m 15.39,0 v 15.38 h 15.38 v -15.38 z m 15.38,0 v 15.38 h 15.39 V 372.31 Z M 95.38,387.69 v 15.39 h 15.39 v -15.39 z m 15.39,0 v 15.39 h 15.38 v -15.39 z m 46.15,0 v 15.39 h 15.39 v -15.39 z m 15.39,0 v 15.39 h 15.38 v -15.39 z m 46.15,0 v 15.39 h 15.39 v -15.39 z m 15.39,0 v 15.39 h 15.38 v -15.39 z m 15.38,0 v 15.39 h 15.39 v -15.39 z m 15.39,0 v 15.39 H 280 v -15.39 z m 15.38,0 v 15.39 h 15.38 v -15.39 z m 30.77,0 v 15.39 h 15.38 v -15.39 z m 15.38,0 v 15.39 h 15.39 v -15.39 z m 15.39,0 v 15.39 h 15.38 v -15.39 z m 61.54,0 v 15.39 h 15.38 v -15.39 z m 61.54,0 v 15.39 H 480 v -15.39 z m 15.38,0 v 15.39 h 15.38 v -15.39 z m 46.15,0 v 15.39 h 15.39 v -15.39 z m 15.39,0 v 15.39 h 15.38 v -15.39 z m 15.38,0 v 15.39 h 15.39 v -15.39 z m 30.77,0 v 15.39 h 15.39 v -15.39 z m 15.39,0 v 15.39 h 15.38 v -15.39 z m 15.38,0 v 15.39 h 15.39 v -15.39 z m 15.39,0 v 15.39 h 15.38 v -15.39 z m 30.77,0 v 15.39 H 680 v -15.39 z m 30.76,0 v 15.39 h 15.39 v -15.39 z m 46.16,0 v 15.39 h 15.38 v -15.39 z m 30.77,0 v 15.39 h 15.38 v -15.39 z m 15.38,0 v 15.39 h 15.39 v -15.39 z m 15.39,0 v 15.39 h 15.38 v -15.39 z m 15.38,0 v 15.39 h 15.39 v -15.39 z m 30.77,0 v 15.39 h 15.39 v -15.39 z m 15.39,0 v 15.39 H 880 v -15.39 z m 15.38,0 v 15.39 h 15.38 v -15.39 z m 15.38,0 v 15.39 h 15.39 v -15.39 z m 46.16,0 v 15.39 h 15.38 v -15.39 z m 15.38,0 v 15.39 h 15.39 v -15.39 z m 46.16,0 v 15.39 h 15.38 v -15.39 z m 15.38,0 v 15.39 h 15.39 v -15.39 z m 30.77,0 v 15.39 h 15.39 V 387.69 Z M 80,403.08 v 15.38 h 15.38 v -15.38 z m 15.38,0 v 15.38 h 15.39 v -15.38 z m 15.39,0 v 15.38 h 15.38 v -15.38 z m 15.38,0 v 15.38 h 15.39 v -15.38 z m 61.54,0 v 15.38 h 15.39 v -15.38 z m 61.54,0 v 15.38 h 15.39 v -15.38 z m 15.39,0 v 15.38 H 280 v -15.38 z m 30.76,0 v 15.38 h 15.39 v -15.38 z m 15.39,0 v 15.38 h 15.38 v -15.38 z m 46.15,0 v 15.38 h 15.39 v -15.38 z m 46.16,0 v 15.38 h 15.38 v -15.38 z m 15.38,0 v 15.38 h 15.39 v -15.38 z m 30.77,0 v 15.38 h 15.39 v -15.38 z m 15.39,0 v 15.38 H 480 v -15.38 z m 30.76,0 v 15.38 h 15.39 v -15.38 z m 30.77,0 v 15.38 h 15.39 v -15.38 z m 15.39,0 v 15.38 h 15.38 v -15.38 z m 30.77,0 v 15.38 h 15.38 v -15.38 z m 15.38,0 v 15.38 h 15.39 v -15.38 z m 30.77,0 v 15.38 h 15.39 v -15.38 z m 15.39,0 v 15.38 h 15.38 v -15.38 z m 30.77,0 v 15.38 H 680 v -15.38 z m 76.92,0 v 15.38 h 15.38 v -15.38 z m 92.31,0 v 15.38 h 15.38 v -15.38 z m 30.77,0 v 15.38 H 880 v -15.38 z m 15.38,0 v 15.38 h 15.38 v -15.38 z m 138.46,0 v 15.38 h 15.39 v -15.38 z m 46.16,0 v 15.38 H 1080 V 403.08 Z M 80,418.46 v 15.39 h 15.38 v -15.39 z m 30.77,0 v 15.39 h 15.38 v -15.39 z m 61.54,0 v 15.39 h 15.38 v -15.39 z m 30.77,0 v 15.39 h 15.38 v -15.39 z m 30.77,0 v 15.39 h 15.38 v -15.39 z m 15.38,0 v 15.39 h 15.39 v -15.39 z m 15.39,0 v 15.39 H 280 v -15.39 z m 15.38,0 v 15.39 h 15.38 v -15.39 z m 15.38,0 v 15.39 h 15.39 v -15.39 z m 46.16,0 v 15.39 h 15.38 v -15.39 z m 15.38,0 v 15.39 h 15.39 v -15.39 z m 30.77,0 v 15.39 h 15.39 v -15.39 z m 76.93,0 v 15.39 H 480 v -15.39 z m 15.38,0 v 15.39 h 15.38 v -15.39 z m 30.77,0 v 15.39 h 15.38 v -15.39 z m 76.92,0 v 15.39 h 15.39 v -15.39 z m 15.39,0 v 15.39 h 15.38 v -15.39 z m 15.38,0 v 15.39 h 15.39 v -15.39 z m 30.77,0 v 15.39 h 15.39 v -15.39 z m 15.39,0 v 15.39 H 680 v -15.39 z m 46.15,0 v 15.39 h 15.38 v -15.39 z m 30.77,0 v 15.39 h 15.38 v -15.39 z m 30.77,0 v 15.39 h 15.38 v -15.39 z m 15.38,0 v 15.39 h 15.39 v -15.39 z m 30.77,0 v 15.39 h 15.39 v -15.39 z m 15.39,0 v 15.39 h 15.38 v -15.39 z m 15.38,0 v 15.39 h 15.39 v -15.39 z m 92.31,0 v 15.39 h 15.38 v -15.39 z m 15.38,0 v 15.39 h 15.39 v -15.39 z m 46.16,0 v 15.39 h 15.38 v -15.39 z m 61.54,0 v 15.39 H 1080 V 418.46 Z M 80,433.85 v 15.38 h 15.38 v -15.38 z m 46.15,0 v 15.38 h 15.39 v -15.38 z m 30.77,0 v 15.38 h 15.39 v -15.38 z m 30.77,0 v 15.38 h 15.39 v -15.38 z m 46.16,0 v 15.38 h 15.38 v -15.38 z m 15.38,0 v 15.38 h 15.39 v -15.38 z m 46.15,0 v 15.38 h 15.39 v -15.38 z m 46.16,0 v 15.38 h 15.38 v -15.38 z m 46.15,0 v 15.38 h 15.39 v -15.38 z m 30.77,0 v 15.38 h 15.39 v -15.38 z m 15.39,0 v 15.38 h 15.38 v -15.38 z m 15.38,0 v 15.38 h 15.39 v -15.38 z m 76.92,0 v 15.38 h 15.39 v -15.38 z m 30.77,0 v 15.38 h 15.39 v -15.38 z m 15.39,0 v 15.38 h 15.38 v -15.38 z m 15.38,0 v 15.38 h 15.39 v -15.38 z m 15.39,0 v 15.38 h 15.38 v -15.38 z m 15.38,0 v 15.38 h 15.39 v -15.38 z m 46.16,0 v 15.38 H 680 v -15.38 z m 46.15,0 v 15.38 h 15.38 v -15.38 z m 15.38,0 v 15.38 h 15.39 v -15.38 z m 30.77,0 v 15.38 h 15.39 v -15.38 z m 30.77,0 v 15.38 h 15.39 v -15.38 z m 30.77,0 v 15.38 h 15.39 v -15.38 z m 30.77,0 v 15.38 h 15.39 v -15.38 z m 30.77,0 v 15.38 h 15.38 v -15.38 z m 46.15,0 v 15.38 h 15.39 v -15.38 z m 46.16,0 v 15.38 h 15.38 v -15.38 z m 15.38,0 v 15.38 h 15.39 v -15.38 z m 15.39,0 v 15.38 h 15.38 v -15.38 z m 15.38,0 v 15.38 h 15.39 v -15.38 z m 30.77,0 v 15.38 h 15.39 v -15.38 z m 15.39,0 v 15.38 H 1080 V 433.85 Z M 95.38,449.23 v 15.39 h 15.39 v -15.39 z m 30.77,0 v 15.39 h 15.39 v -15.39 z m 30.77,0 v 15.39 h 15.39 v -15.39 z m 15.39,0 v 15.39 h 15.38 v -15.39 z m 15.38,0 v 15.39 h 15.39 v -15.39 z m 30.77,0 v 15.39 h 15.39 v -15.39 z m 15.39,0 v 15.39 h 15.38 v -15.39 z m 15.38,0 v 15.39 h 15.39 v -15.39 z m 15.39,0 v 15.39 H 280 v -15.39 z m 30.76,0 v 15.39 h 15.39 v -15.39 z m 46.16,0 v 15.39 h 15.38 v -15.39 z m 15.38,0 v 15.39 h 15.39 v -15.39 z m 15.39,0 v 15.39 h 15.38 v -15.39 z m 15.38,0 v 15.39 h 15.39 v -15.39 z m 30.77,0 v 15.39 h 15.39 v -15.39 z m 30.77,0 v 15.39 h 15.39 v -15.39 z m 15.39,0 v 15.39 H 480 v -15.39 z m 30.76,0 v 15.39 h 15.39 v -15.39 z m 15.39,0 v 15.39 h 15.38 v -15.39 z m 30.77,0 v 15.39 h 15.38 v -15.39 z m 61.54,0 v 15.39 h 15.38 v -15.39 z m 15.38,0 v 15.39 h 15.39 v -15.39 z m 15.39,0 v 15.39 h 15.38 v -15.39 z m 15.38,0 v 15.39 h 15.39 v -15.39 z m 15.39,0 v 15.39 H 680 v -15.39 z m 46.15,0 v 15.39 h 15.38 v -15.39 z m 15.38,0 v 15.39 h 15.39 v -15.39 z m 15.39,0 v 15.39 h 15.38 v -15.39 z m 15.38,0 v 15.39 h 15.39 v -15.39 z m 15.39,0 v 15.39 h 15.38 v -15.39 z m 30.77,0 v 15.39 h 15.38 v -15.39 z m 15.38,0 v 15.39 h 15.39 v -15.39 z m 15.39,0 v 15.39 h 15.38 v -15.39 z m 15.38,0 v 15.39 h 15.39 v -15.39 z m 30.77,0 v 15.39 h 15.38 v -15.39 z m 15.38,0 v 15.39 h 15.39 v -15.39 z m 30.77,0 v 15.39 h 15.39 v -15.39 z m 46.16,0 v 15.39 h 15.38 v -15.39 z m 46.15,0 v 15.39 h 15.39 v -15.39 z m 30.77,0 v 15.39 h 15.39 V 449.23 Z M 80,464.62 V 480 h 15.38 v -15.38 z m 30.77,0 V 480 h 15.38 v -15.38 z m 15.38,0 V 480 h 15.39 v -15.38 z m 76.93,0 V 480 h 15.38 v -15.38 z m 30.77,0 V 480 h 15.38 v -15.38 z m 15.38,0 V 480 h 15.39 v -15.38 z m 30.77,0 V 480 h 15.38 v -15.38 z m 15.38,0 V 480 h 15.39 v -15.38 z m 15.39,0 V 480 h 15.38 v -15.38 z m 30.77,0 V 480 h 15.38 v -15.38 z m 15.38,0 V 480 h 15.39 v -15.38 z m 15.39,0 V 480 h 15.38 v -15.38 z m 46.15,0 V 480 h 15.39 v -15.38 z m 15.39,0 V 480 h 15.38 v -15.38 z m 15.38,0 V 480 h 15.39 v -15.38 z m 92.31,0 V 480 h 15.38 v -15.38 z m 15.38,0 V 480 h 15.39 v -15.38 z m 15.39,0 V 480 h 15.38 v -15.38 z m 46.15,0 V 480 h 15.39 v -15.38 z m 15.39,0 V 480 h 15.38 v -15.38 z m 76.92,0 V 480 h 15.38 v -15.38 z m 30.77,0 V 480 h 15.38 v -15.38 z m 46.15,0 V 480 h 15.39 v -15.38 z m 46.16,0 V 480 h 15.38 v -15.38 z m 15.38,0 V 480 h 15.39 v -15.38 z m 30.77,0 V 480 h 15.38 v -15.38 z m 15.38,0 V 480 h 15.39 v -15.38 z m 15.39,0 V 480 h 15.38 v -15.38 z m 30.77,0 V 480 h 15.38 v -15.38 z m 30.77,0 V 480 h 15.38 v -15.38 z m 46.15,0 V 480 h 15.39 v -15.38 z m 15.39,0 V 480 h 15.38 V 464.62 Z M 141.54,480 v 15.38 h 15.38 V 480 Z m 15.38,0 v 15.38 h 15.39 V 480 Z m 15.39,0 v 15.38 h 15.38 V 480 Z m 92.31,0 v 15.38 H 280 V 480 Z m 15.38,0 v 15.38 h 15.38 V 480 Z m 15.38,0 v 15.38 h 15.39 V 480 Z m 30.77,0 v 15.38 h 15.39 V 480 Z m 15.39,0 v 15.38 h 15.38 V 480 Z m 15.38,0 v 15.38 h 15.39 V 480 Z m 46.16,0 v 15.38 h 15.38 V 480 Z m 15.38,0 v 15.38 h 15.39 V 480 Z m 30.77,0 v 15.38 h 15.39 V 480 Z m 15.39,0 v 15.38 H 480 V 480 Z m 30.76,0 v 15.38 h 15.39 V 480 Z m 15.39,0 v 15.38 h 15.38 V 480 Z m 30.77,0 v 15.38 h 15.38 V 480 Z m 46.15,0 v 15.38 h 15.39 V 480 Z m 92.31,0 v 15.38 h 15.38 V 480 Z m 15.38,0 v 15.38 h 15.39 V 480 Z m 30.77,0 v 15.38 h 15.39 V 480 Z m 61.54,0 v 15.38 h 15.39 V 480 Z m 76.93,0 v 15.38 H 880 V 480 Z m 15.38,0 v 15.38 h 15.38 V 480 Z m 30.77,0 v 15.38 h 15.38 V 480 Z m 30.77,0 v 15.38 h 15.38 V 480 Z m 46.15,0 v 15.38 h 15.39 V 480 Z m 15.39,0 v 15.38 h 15.38 V 480 Z m 15.38,0 v 15.38 h 15.39 V 480 Z m 15.39,0 v 15.38 h 15.38 V 480 Z m 30.77,0 v 15.38 H 1080 V 480 Z M 80,495.38 v 15.39 h 15.38 v -15.39 z m 61.54,0 v 15.39 h 15.38 v -15.39 z m 61.54,0 v 15.39 h 15.38 v -15.39 z m 30.77,0 v 15.39 h 15.38 v -15.39 z m 15.38,0 v 15.39 h 15.39 v -15.39 z m 61.54,0 v 15.39 h 15.38 v -15.39 z m 46.15,0 v 15.39 h 15.39 v -15.39 z m 15.39,0 v 15.39 h 15.38 v -15.39 z m 15.38,0 v 15.39 h 15.39 v -15.39 z m 15.39,0 v 15.39 h 15.38 v -15.39 z m 15.38,0 v 15.39 h 15.39 v -15.39 z m 30.77,0 v 15.39 h 15.39 v -15.39 z m 30.77,0 v 15.39 h 15.38 v -15.39 z m 15.38,0 v 15.39 h 15.39 v -15.39 z m 76.93,0 v 15.39 h 15.38 v -15.39 z m 30.77,0 v 15.39 h 15.38 v -15.39 z m 61.54,0 v 15.39 H 680 v -15.39 z m 76.92,0 v 15.39 h 15.38 v -15.39 z m 15.38,0 v 15.39 h 15.39 v -15.39 z m 30.77,0 v 15.39 h 15.39 v -15.39 z m 15.39,0 v 15.39 h 15.38 v -15.39 z m 46.15,0 v 15.39 h 15.39 v -15.39 z m 15.39,0 v 15.39 H 880 v -15.39 z m 46.15,0 v 15.39 h 15.38 v -15.39 z m 15.38,0 v 15.39 h 15.39 v -15.39 z m 15.39,0 v 15.39 h 15.38 v -15.39 z m 15.38,0 v 15.39 h 15.39 v -15.39 z m 61.54,0 v 15.39 h 15.39 V 495.38 Z M 80,510.77 v 15.38 h 15.38 v -15.38 z m 30.77,0 v 15.38 h 15.38 v -15.38 z m 15.38,0 v 15.38 h 15.39 v -15.38 z m 46.16,0 v 15.38 h 15.38 v -15.38 z m 15.38,0 v 15.38 h 15.39 v -15.38 z m 76.93,0 v 15.38 H 280 v -15.38 z m 15.38,0 v 15.38 h 15.38 v -15.38 z m 15.38,0 v 15.38 h 15.39 v -15.38 z m 30.77,0 v 15.38 h 15.39 v -15.38 z m 30.77,0 v 15.38 h 15.39 v -15.38 z m 92.31,0 v 15.38 h 15.39 v -15.38 z m 15.39,0 v 15.38 H 480 v -15.38 z m 30.76,0 v 15.38 h 15.39 v -15.38 z m 30.77,0 v 15.38 h 15.39 v -15.38 z m 76.93,0 v 15.38 h 15.38 v -15.38 z m 15.38,0 v 15.38 h 15.39 v -15.38 z m 30.77,0 v 15.38 h 15.39 v -15.38 z m 46.15,0 v 15.38 h 15.39 v -15.38 z m 30.77,0 v 15.38 h 15.39 v -15.38 z m 15.39,0 v 15.38 h 15.38 v -15.38 z m 15.38,0 v 15.38 h 15.39 v -15.38 z m 46.16,0 v 15.38 h 15.38 v -15.38 z m 30.77,0 v 15.38 h 15.38 v -15.38 z m 15.38,0 v 15.38 h 15.39 v -15.38 z m 76.92,0 v 15.38 h 15.39 v -15.38 z m 61.54,0 v 15.38 h 15.39 v -15.38 z m 15.39,0 v 15.38 h 15.38 v -15.38 z m 15.38,0 v 15.38 h 15.39 v -15.38 z m 15.39,0 v 15.38 h 15.38 v -15.38 z m 30.77,0 v 15.38 H 1080 V 510.77 Z M 80,526.15 v 15.39 h 15.38 v -15.39 z m 15.38,0 v 15.39 h 15.39 v -15.39 z m 61.54,0 v 15.39 h 15.39 v -15.39 z m 30.77,0 v 15.39 h 15.39 v -15.39 z m 15.39,0 v 15.39 h 15.38 v -15.39 z m 15.38,0 v 15.39 h 15.39 v -15.39 z m 30.77,0 v 15.39 h 15.39 v -15.39 z m 30.77,0 v 15.39 h 15.38 v -15.39 z m 46.15,0 v 15.39 h 15.39 v -15.39 z m 30.77,0 v 15.39 h 15.39 v -15.39 z m 30.77,0 v 15.39 h 15.39 v -15.39 z m 15.39,0 v 15.39 h 15.38 v -15.39 z m 15.38,0 v 15.39 h 15.39 v -15.39 z m 30.77,0 v 15.39 h 15.39 v -15.39 z m 15.39,0 v 15.39 H 480 v -15.39 z m 15.38,0 v 15.39 h 15.38 v -15.39 z m 15.38,0 v 15.39 h 15.39 v -15.39 z m 46.16,0 v 15.39 h 15.38 v -15.39 z m 15.38,0 v 15.39 h 15.39 v -15.39 z m 15.39,0 v 15.39 h 15.38 v -15.39 z m 76.92,0 v 15.39 h 15.39 v -15.39 z m 15.39,0 v 15.39 H 680 v -15.39 z m 92.3,0 v 15.39 h 15.39 v -15.39 z m 15.39,0 v 15.39 h 15.38 v -15.39 z m 15.38,0 v 15.39 h 15.39 v -15.39 z m 46.16,0 v 15.39 h 15.38 v -15.39 z m 15.38,0 v 15.39 h 15.39 v -15.39 z m 61.54,0 v 15.39 h 15.38 v -15.39 z m 30.77,0 v 15.39 h 15.38 v -15.39 z m 30.77,0 v 15.39 h 15.38 v -15.39 z m 30.77,0 v 15.39 h 15.38 V 526.15 Z M 80,541.54 v 15.38 h 15.38 v -15.38 z m 46.15,0 v 15.38 h 15.39 v -15.38 z m 15.39,0 v 15.38 h 15.38 v -15.38 z m 15.38,0 v 15.38 h 15.39 v -15.38 z m 15.39,0 v 15.38 h 15.38 v -15.38 z m 15.38,0 v 15.38 h 15.39 v -15.38 z m 15.39,0 v 15.38 h 15.38 v -15.38 z m 15.38,0 v 15.38 h 15.39 v -15.38 z m 61.54,0 v 15.38 h 15.38 v -15.38 z m 46.15,0 v 15.38 h 15.39 v -15.38 z m 92.31,0 v 15.38 h 15.39 v -15.38 z m 46.16,0 v 15.38 H 480 v -15.38 z m 76.92,0 v 15.38 h 15.38 v -15.38 z m 15.38,0 v 15.38 h 15.39 v -15.38 z m 15.39,0 v 15.38 h 15.38 v -15.38 z m 15.38,0 v 15.38 h 15.39 v -15.38 z m 15.39,0 v 15.38 h 15.38 v -15.38 z m 46.15,0 v 15.38 h 15.39 v -15.38 z m 46.15,0 v 15.38 h 15.39 v -15.38 z m 15.39,0 v 15.38 h 15.38 v -15.38 z m 61.54,0 v 15.38 h 15.38 v -15.38 z m 92.31,0 v 15.38 H 880 v -15.38 z m 15.38,0 v 15.38 h 15.38 v -15.38 z m 46.15,0 v 15.38 h 15.39 v -15.38 z m 15.39,0 v 15.38 h 15.38 v -15.38 z m 15.38,0 v 15.38 h 15.39 v -15.38 z m 15.39,0 v 15.38 h 15.38 v -15.38 z m 15.38,0 v 15.38 h 15.39 v -15.38 z m 15.39,0 v 15.38 h 15.38 v -15.38 z m 46.15,0 v 15.38 h 15.39 v -15.38 z m 15.39,0 v 15.38 H 1080 V 541.54 Z M 95.38,556.92 v 15.39 h 15.39 v -15.39 z m 15.39,0 v 15.39 h 15.38 v -15.39 z m 30.77,0 v 15.39 h 15.38 v -15.39 z m 61.54,0 v 15.39 h 15.38 v -15.39 z m 30.77,0 v 15.39 h 15.38 v -15.39 z m 46.15,0 v 15.39 h 15.38 v -15.39 z m 30.77,0 v 15.39 h 15.38 v -15.39 z m 30.77,0 v 15.39 h 15.38 v -15.39 z m 15.38,0 v 15.39 h 15.39 v -15.39 z m 15.39,0 v 15.39 h 15.38 v -15.39 z m 15.38,0 v 15.39 h 15.39 v -15.39 z m 123.08,0 v 15.39 h 15.38 v -15.39 z m 15.38,0 v 15.39 h 15.39 v -15.39 z m 15.39,0 v 15.39 h 15.38 v -15.39 z m 61.54,0 v 15.39 h 15.38 v -15.39 z m 46.15,0 v 15.39 h 15.39 v -15.39 z m 153.85,0 v 15.39 h 15.38 v -15.39 z m 15.38,0 v 15.39 h 15.39 v -15.39 z m 15.39,0 v 15.39 h 15.38 v -15.39 z m 30.77,0 v 15.39 H 880 v -15.39 z m 46.15,0 v 15.39 h 15.38 v -15.39 z m 30.77,0 v 15.39 h 15.38 v -15.39 z m 61.54,0 v 15.39 h 15.38 v -15.39 z m 30.77,0 v 15.39 h 15.38 v -15.39 z m 15.38,0 v 15.39 h 15.39 v -15.39 z m 15.39,0 v 15.39 H 1080 V 556.92 Z M 80,572.31 v 15.38 h 15.38 v -15.38 z m 61.54,0 v 15.38 h 15.38 v -15.38 z m 30.77,0 v 15.38 h 15.38 v -15.38 z m 30.77,0 v 15.38 h 15.38 v -15.38 z m 30.77,0 v 15.38 h 15.38 v -15.38 z m 30.77,0 v 15.38 H 280 v -15.38 z m 15.38,0 v 15.38 h 15.38 v -15.38 z m 30.77,0 v 15.38 h 15.38 v -15.38 z m 15.38,0 v 15.38 h 15.39 v -15.38 z m 15.39,0 v 15.38 h 15.38 v -15.38 z m 15.38,0 v 15.38 h 15.39 v -15.38 z m 15.39,0 v 15.38 h 15.38 v -15.38 z m 30.77,0 v 15.38 h 15.38 v -15.38 z m 46.15,0 v 15.38 h 15.39 v -15.38 z m 15.39,0 v 15.38 H 480 v -15.38 z m 30.76,0 v 15.38 h 15.39 v -15.38 z m 15.39,0 v 15.38 h 15.38 v -15.38 z m 15.38,0 v 15.38 h 15.39 v -15.38 z m 15.39,0 v 15.38 h 15.38 v -15.38 z m 30.77,0 v 15.38 h 15.38 v -15.38 z m 30.77,0 v 15.38 h 15.38 v -15.38 z m 30.77,0 v 15.38 h 15.38 v -15.38 z m 30.77,0 v 15.38 H 680 v -15.38 z m 30.76,0 v 15.38 h 15.39 v -15.38 z m 15.39,0 v 15.38 h 15.38 v -15.38 z m 30.77,0 v 15.38 h 15.38 v -15.38 z m 61.54,0 v 15.38 h 15.38 v -15.38 z m 92.3,0 v 15.38 h 15.39 v -15.38 z m 15.39,0 v 15.38 h 15.38 v -15.38 z m 30.77,0 v 15.38 h 15.38 v -15.38 z m 30.77,0 v 15.38 h 15.38 v -15.38 z m 30.77,0 v 15.38 h 15.38 v -15.38 z m 15.38,0 v 15.38 h 15.39 V 572.31 Z M 80,587.69 v 15.39 h 15.38 v -15.39 z m 30.77,0 v 15.39 h 15.38 v -15.39 z m 15.38,0 v 15.39 h 15.39 v -15.39 z m 15.39,0 v 15.39 h 15.38 v -15.39 z m 61.54,0 v 15.39 h 15.38 v -15.39 z m 15.38,0 v 15.39 h 15.39 v -15.39 z m 15.39,0 v 15.39 h 15.38 v -15.39 z m 30.77,0 v 15.39 H 280 v -15.39 z m 15.38,0 v 15.39 h 15.38 v -15.39 z m 30.77,0 v 15.39 h 15.38 v -15.39 z m 15.38,0 v 15.39 h 15.39 v -15.39 z m 46.16,0 v 15.39 h 15.38 v -15.39 z m 15.38,0 v 15.39 h 15.39 v -15.39 z m 61.54,0 v 15.39 h 15.39 v -15.39 z m 46.15,0 v 15.39 h 15.39 v -15.39 z m 15.39,0 v 15.39 h 15.38 v -15.39 z m 30.77,0 v 15.39 h 15.38 v -15.39 z m 61.54,0 v 15.39 h 15.38 v -15.39 z m 15.38,0 v 15.39 h 15.39 v -15.39 z m 15.39,0 v 15.39 h 15.38 v -15.39 z m 15.38,0 v 15.39 h 15.39 v -15.39 z m 15.39,0 v 15.39 H 680 v -15.39 z m 30.76,0 v 15.39 h 15.39 v -15.39 z m 15.39,0 v 15.39 h 15.38 v -15.39 z m 15.38,0 v 15.39 h 15.39 v -15.39 z m 15.39,0 v 15.39 h 15.38 v -15.39 z m 61.54,0 v 15.39 h 15.38 v -15.39 z m 15.38,0 v 15.39 h 15.39 v -15.39 z m 15.39,0 v 15.39 h 15.38 v -15.39 z m 15.38,0 v 15.39 h 15.39 v -15.39 z m 61.54,0 v 15.39 h 15.38 v -15.39 z m 15.38,0 v 15.39 h 15.39 v -15.39 z m 15.39,0 v 15.39 h 15.38 v -15.39 z m 61.54,0 v 15.39 h 15.38 v -15.39 z m 61.54,0 v 15.39 H 1080 V 587.69 Z M 80,603.08 v 15.38 h 15.38 v -15.38 z m 15.38,0 v 15.38 h 15.39 v -15.38 z m 15.39,0 v 15.38 h 15.38 v -15.38 z m 30.77,0 v 15.38 h 15.38 v -15.38 z m 15.38,0 v 15.38 h 15.39 v -15.38 z m 15.39,0 v 15.38 h 15.38 v -15.38 z m 15.38,0 v 15.38 h 15.39 v -15.38 z m 15.39,0 v 15.38 h 15.38 v -15.38 z m 30.77,0 v 15.38 h 15.38 v -15.38 z m 30.77,0 v 15.38 H 280 v -15.38 z m 15.38,0 v 15.38 h 15.38 v -15.38 z m 76.92,0 v 15.38 h 15.39 v -15.38 z m 15.39,0 v 15.38 h 15.38 v -15.38 z m 15.38,0 v 15.38 h 15.39 v -15.38 z m 76.93,0 v 15.38 H 480 v -15.38 z m 30.76,0 v 15.38 h 15.39 v -15.38 z m 15.39,0 v 15.38 h 15.38 v -15.38 z m 30.77,0 v 15.38 h 15.38 v -15.38 z m 15.38,0 v 15.38 h 15.39 v -15.38 z m 15.39,0 v 15.38 h 15.38 v -15.38 z m 15.38,0 v 15.38 h 15.39 v -15.38 z m 15.39,0 v 15.38 h 15.38 v -15.38 z m 15.38,0 v 15.38 h 15.39 v -15.38 z m 15.39,0 v 15.38 h 15.38 v -15.38 z m 15.38,0 v 15.38 h 15.39 v -15.38 z m 15.39,0 v 15.38 H 680 v -15.38 z m 15.38,0 v 15.38 h 15.38 v -15.38 z m 30.77,0 v 15.38 h 15.38 v -15.38 z m 15.38,0 v 15.38 h 15.39 v -15.38 z m 15.39,0 v 15.38 h 15.38 v -15.38 z m 30.77,0 v 15.38 h 15.38 v -15.38 z m 61.54,0 v 15.38 h 15.38 v -15.38 z m 15.38,0 v 15.38 h 15.39 v -15.38 z m 30.77,0 v 15.38 h 15.38 v -15.38 z m 30.77,0 v 15.38 h 15.38 v -15.38 z m 15.38,0 v 15.38 h 15.39 v -15.38 z m 15.39,0 v 15.38 h 15.38 v -15.38 z m 15.38,0 v 15.38 h 15.39 v -15.38 z m 15.39,0 v 15.38 h 15.38 v -15.38 z m 15.38,0 v 15.38 h 15.39 v -15.38 z m 15.39,0 v 15.38 h 15.38 v -15.38 z m 15.38,0 v 15.38 h 15.39 v -15.38 z m 15.39,0 v 15.38 h 15.38 V 603.08 Z M 95.38,618.46 v 15.39 h 15.39 v -15.39 z m 61.54,0 v 15.39 h 15.39 v -15.39 z m 30.77,0 v 15.39 h 15.39 v -15.39 z m 30.77,0 v 15.39 h 15.39 v -15.39 z m 15.39,0 v 15.39 h 15.38 v -15.39 z m 30.77,0 v 15.39 H 280 v -15.39 z m 15.38,0 v 15.39 h 15.38 v -15.39 z m 15.38,0 v 15.39 h 15.39 v -15.39 z m 15.39,0 v 15.39 h 15.38 v -15.39 z m 15.38,0 v 15.39 h 15.39 v -15.39 z m 46.16,0 v 15.39 h 15.38 v -15.39 z m 46.15,0 v 15.39 h 15.39 v -15.39 z m 30.77,0 v 15.39 h 15.39 v -15.39 z m 61.54,0 v 15.39 h 15.38 v -15.39 z m 30.77,0 v 15.39 h 15.38 v -15.39 z m 30.77,0 v 15.39 h 15.38 v -15.39 z m 15.38,0 v 15.39 h 15.39 v -15.39 z m 15.39,0 v 15.39 h 15.38 v -15.39 z m 15.38,0 v 15.39 h 15.39 v -15.39 z m 15.39,0 v 15.39 h 15.38 v -15.39 z m 15.38,0 v 15.39 h 15.39 v -15.39 z m 15.39,0 v 15.39 H 680 v -15.39 z m 15.38,0 v 15.39 h 15.38 v -15.39 z m 15.38,0 v 15.39 h 15.39 v -15.39 z m 15.39,0 v 15.39 h 15.38 v -15.39 z m 15.38,0 v 15.39 h 15.39 v -15.39 z m 15.39,0 v 15.39 h 15.38 v -15.39 z m 15.38,0 v 15.39 h 15.39 v -15.39 z m 15.39,0 v 15.39 h 15.38 v -15.39 z m 15.38,0 v 15.39 h 15.39 v -15.39 z m 46.16,0 v 15.39 h 15.38 v -15.39 z m 15.38,0 v 15.39 h 15.39 v -15.39 z m 15.39,0 v 15.39 H 880 v -15.39 z m 15.38,0 v 15.39 h 15.38 v -15.39 z m 15.38,0 v 15.39 h 15.39 v -15.39 z m 15.39,0 v 15.39 h 15.38 v -15.39 z m 15.38,0 v 15.39 h 15.39 v -15.39 z m 46.16,0 v 15.39 h 15.38 v -15.39 z m 30.77,0 v 15.39 h 15.38 v -15.39 z m 30.77,0 v 15.39 h 15.38 v -15.39 z m 15.38,0 v 15.39 h 15.39 v -15.39 z m 15.39,0 v 15.39 H 1080 V 618.46 Z M 95.38,633.85 v 15.38 h 15.39 v -15.38 z m 46.16,0 v 15.38 h 15.38 v -15.38 z m 30.77,0 v 15.38 h 15.38 v -15.38 z m 15.38,0 v 15.38 h 15.39 v -15.38 z m 15.39,0 v 15.38 h 15.38 v -15.38 z m 61.54,0 v 15.38 H 280 v -15.38 z m 30.76,0 v 15.38 h 15.39 v -15.38 z m 30.77,0 v 15.38 h 15.39 v -15.38 z m 15.39,0 v 15.38 h 15.38 v -15.38 z m 46.15,0 v 15.38 h 15.39 v -15.38 z m 46.16,0 v 15.38 h 15.38 v -15.38 z m 15.38,0 v 15.38 h 15.39 v -15.38 z m 46.15,0 v 15.38 h 15.39 v -15.38 z m 15.39,0 v 15.38 h 15.38 v -15.38 z m 15.38,0 v 15.38 h 15.39 v -15.38 z m 30.77,0 v 15.38 h 15.39 v -15.38 z m 15.39,0 v 15.38 h 15.38 v -15.38 z m 30.77,0 v 15.38 h 15.38 v -15.38 z m 15.38,0 v 15.38 h 15.39 v -15.38 z m 15.39,0 v 15.38 h 15.38 v -15.38 z m 46.15,0 v 15.38 h 15.38 v -15.38 z m 15.38,0 v 15.38 h 15.39 v -15.38 z m 15.39,0 v 15.38 h 15.38 v -15.38 z m 30.77,0 v 15.38 h 15.38 v -15.38 z m 15.38,0 v 15.38 h 15.39 v -15.38 z m 61.54,0 v 15.38 h 15.39 v -15.38 z m 15.39,0 v 15.38 h 15.38 v -15.38 z m 46.15,0 v 15.38 h 15.38 v -15.38 z m 30.77,0 v 15.38 h 15.38 v -15.38 z m 15.38,0 v 15.38 h 15.39 v -15.38 z m 15.39,0 v 15.38 h 15.38 v -15.38 z m 15.38,0 v 15.38 h 15.39 v -15.38 z m 30.77,0 v 15.38 h 15.39 v -15.38 z m 15.39,0 v 15.38 h 15.38 v -15.38 z m 30.77,0 v 15.38 h 15.38 v -15.38 z m 30.77,0 v 15.38 H 1080 V 633.85 Z M 80,649.23 v 15.39 h 15.38 v -15.39 z m 76.92,0 v 15.39 h 15.39 v -15.39 z m 30.77,0 v 15.39 h 15.39 v -15.39 z m 15.39,0 v 15.39 h 15.38 v -15.39 z m 30.77,0 v 15.39 h 15.38 v -15.39 z m 15.38,0 v 15.39 h 15.39 v -15.39 z m 76.92,0 v 15.39 h 15.39 v -15.39 z m 61.54,0 v 15.39 h 15.39 v -15.39 z m 30.77,0 v 15.39 h 15.39 v -15.39 z m 15.39,0 v 15.39 h 15.38 v -15.39 z m 15.38,0 v 15.39 h 15.39 v -15.39 z m 15.39,0 v 15.39 H 480 v -15.39 z m 46.15,0 v 15.39 h 15.38 v -15.39 z m 15.38,0 v 15.39 h 15.39 v -15.39 z m 15.39,0 v 15.39 h 15.38 v -15.39 z m 15.38,0 v 15.39 h 15.39 v -15.39 z m 15.39,0 v 15.39 h 15.38 v -15.39 z m 30.77,0 v 15.39 h 15.38 v -15.39 z m 15.38,0 v 15.39 h 15.39 v -15.39 z m 30.77,0 v 15.39 h 15.39 v -15.39 z m 30.77,0 v 15.39 h 15.38 v -15.39 z m 15.38,0 v 15.39 h 15.39 v -15.39 z m 92.31,0 v 15.39 h 15.39 v -15.39 z m 30.77,0 v 15.39 h 15.39 v -15.39 z m 30.77,0 v 15.39 h 15.39 v -15.39 z m 30.77,0 v 15.39 h 15.38 v -15.39 z m 15.38,0 v 15.39 h 15.39 v -15.39 z m 46.16,0 v 15.39 h 15.38 v -15.39 z m 30.77,0 v 15.39 h 15.38 v -15.39 z m 15.38,0 v 15.39 h 15.39 v -15.39 z m 30.77,0 v 15.39 h 15.39 v -15.39 z m 46.16,0 v 15.39 H 1080 V 649.23 Z M 80,664.62 V 680 h 15.38 v -15.38 z m 46.15,0 V 680 h 15.39 v -15.38 z m 15.39,0 V 680 h 15.38 v -15.38 z m 30.77,0 V 680 h 15.38 v -15.38 z m 15.38,0 V 680 h 15.39 v -15.38 z m 123.08,0 V 680 h 15.38 v -15.38 z m 15.38,0 V 680 h 15.39 v -15.38 z m 15.39,0 V 680 h 15.38 v -15.38 z m 15.38,0 V 680 h 15.39 v -15.38 z m 138.46,0 V 680 h 15.39 v -15.38 z m 15.39,0 V 680 h 15.38 v -15.38 z m 15.38,0 V 680 h 15.39 v -15.38 z m 76.93,0 V 680 h 15.38 v -15.38 z m 30.77,0 V 680 h 15.38 v -15.38 z m 30.77,0 V 680 H 680 v -15.38 z m 15.38,0 V 680 h 15.38 v -15.38 z m 15.38,0 V 680 h 15.39 v -15.38 z m 15.39,0 V 680 h 15.38 v -15.38 z m 30.77,0 V 680 h 15.38 v -15.38 z m 15.38,0 V 680 h 15.39 v -15.38 z m 30.77,0 V 680 h 15.39 v -15.38 z m 15.39,0 V 680 h 15.38 v -15.38 z m 15.38,0 V 680 h 15.39 v -15.38 z m 30.77,0 V 680 h 15.39 v -15.38 z m 30.77,0 V 680 h 15.38 v -15.38 z m 15.38,0 V 680 h 15.39 v -15.38 z m 30.77,0 V 680 h 15.39 v -15.38 z m 15.39,0 V 680 h 15.38 v -15.38 z m 92.31,0 V 680 h 15.38 v -15.38 z m 15.38,0 V 680 h 15.39 V 664.62 Z M 95.38,680 v 15.38 h 15.39 V 680 Z m 61.54,0 v 15.38 h 15.39 V 680 Z m 92.31,0 v 15.38 h 15.39 V 680 Z m 15.39,0 v 15.38 H 280 V 680 Z m 30.76,0 v 15.38 h 15.39 V 680 Z m 15.39,0 v 15.38 h 15.38 V 680 Z m 15.38,0 v 15.38 h 15.39 V 680 Z m 15.39,0 v 15.38 h 15.38 V 680 Z m 15.38,0 v 15.38 h 15.39 V 680 Z m 46.16,0 v 15.38 h 15.38 V 680 Z m 76.92,0 v 15.38 h 15.38 V 680 Z m 30.77,0 v 15.38 h 15.38 V 680 Z m 30.77,0 v 15.38 h 15.38 V 680 Z m 15.38,0 v 15.38 h 15.39 V 680 Z m 30.77,0 v 15.38 h 15.39 V 680 Z m 46.16,0 v 15.38 h 15.38 V 680 Z m 30.77,0 v 15.38 H 680 V 680 Z m 15.38,0 v 15.38 h 15.38 V 680 Z m 15.38,0 v 15.38 h 15.39 V 680 Z m 15.39,0 v 15.38 h 15.38 V 680 Z m 15.38,0 v 15.38 h 15.39 V 680 Z m 15.39,0 v 15.38 h 15.38 V 680 Z m 15.38,0 v 15.38 h 15.39 V 680 Z m 15.39,0 v 15.38 h 15.38 V 680 Z m 46.15,0 v 15.38 h 15.39 V 680 Z m 61.54,0 v 15.38 h 15.38 V 680 Z m 46.15,0 v 15.38 h 15.39 V 680 Z m 15.39,0 v 15.38 h 15.38 V 680 Z m 15.38,0 v 15.38 h 15.39 V 680 Z m 46.16,0 v 15.38 h 15.38 V 680 Z m -892.31,15.38 v 15.39 h 15.38 v -15.39 z m 30.77,0 v 15.39 h 15.38 v -15.39 z m 30.77,0 v 15.39 h 15.38 v -15.39 z m 30.77,0 v 15.39 h 15.38 v -15.39 z m 30.77,0 v 15.39 h 15.38 v -15.39 z m 15.38,0 v 15.39 h 15.39 v -15.39 z m 15.39,0 v 15.39 H 280 v -15.39 z m 92.3,0 v 15.39 h 15.39 v -15.39 z m 30.77,0 v 15.39 h 15.39 v -15.39 z m 30.77,0 v 15.39 h 15.39 v -15.39 z m 15.39,0 v 15.39 h 15.38 v -15.39 z m 15.38,0 v 15.39 h 15.39 v -15.39 z m 15.39,0 v 15.39 H 480 v -15.39 z m 15.38,0 v 15.39 h 15.38 v -15.39 z m 15.38,0 v 15.39 h 15.39 v -15.39 z m 46.16,0 v 15.39 h 15.38 v -15.39 z m 15.38,0 v 15.39 h 15.39 v -15.39 z m 15.39,0 v 15.39 h 15.38 v -15.39 z m 61.54,0 v 15.39 h 15.38 v -15.39 z m 15.38,0 v 15.39 h 15.39 v -15.39 z m 15.39,0 v 15.39 H 680 v -15.39 z m 15.38,0 v 15.39 h 15.38 v -15.39 z m 46.15,0 v 15.39 h 15.39 v -15.39 z m 30.77,0 v 15.39 h 15.39 v -15.39 z m 15.39,0 v 15.39 h 15.38 v -15.39 z m 46.15,0 v 15.39 h 15.39 v -15.39 z m 15.39,0 v 15.39 h 15.38 v -15.39 z m 30.77,0 v 15.39 H 880 v -15.39 z m 46.15,0 v 15.39 h 15.38 v -15.39 z m 15.38,0 v 15.39 h 15.39 v -15.39 z m 15.39,0 v 15.39 h 15.38 v -15.39 z m 46.15,0 v 15.39 h 15.39 v -15.39 z m 15.39,0 v 15.39 h 15.38 v -15.39 z m 30.77,0 v 15.39 h 15.38 v -15.39 z m 15.38,0 v 15.39 h 15.39 v -15.39 z m -938.46,15.39 v 15.38 h 15.38 v -15.38 z m 15.38,0 v 15.38 h 15.39 v -15.38 z m 30.77,0 v 15.38 h 15.39 v -15.38 z m 46.16,0 v 15.38 h 15.38 v -15.38 z m 30.77,0 v 15.38 h 15.38 v -15.38 z m 15.38,0 v 15.38 h 15.39 v -15.38 z m 15.39,0 v 15.38 H 280 v -15.38 z m 30.76,0 v 15.38 h 15.39 v -15.38 z m 15.39,0 v 15.38 h 15.38 v -15.38 z m 30.77,0 v 15.38 h 15.38 v -15.38 z m 15.38,0 v 15.38 h 15.39 v -15.38 z m 15.39,0 v 15.38 h 15.38 v -15.38 z m 30.77,0 v 15.38 h 15.38 v -15.38 z m 76.92,0 v 15.38 h 15.38 v -15.38 z m 15.38,0 v 15.38 h 15.39 v -15.38 z m 15.39,0 v 15.38 h 15.38 v -15.38 z m 46.15,0 v 15.38 h 15.39 v -15.38 z m 30.77,0 v 15.38 h 15.39 v -15.38 z m 46.16,0 v 15.38 h 15.38 v -15.38 z m 46.15,0 v 15.38 h 15.38 v -15.38 z m 15.38,0 v 15.38 h 15.39 v -15.38 z m 15.39,0 v 15.38 h 15.38 v -15.38 z m 15.38,0 v 15.38 h 15.39 v -15.38 z m 30.77,0 v 15.38 h 15.39 v -15.38 z m 46.16,0 v 15.38 h 15.38 v -15.38 z m 46.15,0 v 15.38 h 15.39 v -15.38 z m 15.39,0 v 15.38 H 880 v -15.38 z m 30.76,0 v 15.38 h 15.39 v -15.38 z m 15.39,0 v 15.38 h 15.38 v -15.38 z m 15.38,0 v 15.38 h 15.39 v -15.38 z m 46.16,0 v 15.38 h 15.38 V 710.77 Z M 80,726.15 v 15.39 h 15.38 v -15.39 z m 15.38,0 v 15.39 h 15.39 v -15.39 z m 46.16,0 v 15.39 h 15.38 v -15.39 z m 15.38,0 v 15.39 h 15.39 v -15.39 z m 15.39,0 v 15.39 h 15.38 v -15.39 z m 30.77,0 v 15.39 h 15.38 v -15.39 z m 30.77,0 v 15.39 h 15.38 v -15.39 z m 15.38,0 v 15.39 h 15.39 v -15.39 z m 15.39,0 v 15.39 H 280 v -15.39 z m 46.15,0 v 15.39 h 15.38 v -15.39 z m 46.15,0 v 15.39 h 15.39 v -15.39 z m 30.77,0 v 15.39 h 15.39 v -15.39 z m 46.16,0 v 15.39 h 15.38 v -15.39 z m 15.38,0 v 15.39 h 15.39 v -15.39 z m 61.54,0 v 15.39 h 15.38 v -15.39 z m 30.77,0 v 15.39 h 15.38 v -15.39 z m 76.92,0 v 15.39 h 15.39 v -15.39 z m 46.16,0 v 15.39 H 680 v -15.39 z m 15.38,0 v 15.39 h 15.38 v -15.39 z m 15.38,0 v 15.39 h 15.39 v -15.39 z m 30.77,0 v 15.39 h 15.39 v -15.39 z m 92.31,0 v 15.39 h 15.39 v -15.39 z m 30.77,0 v 15.39 h 15.39 v -15.39 z m 30.77,0 v 15.39 h 15.38 v -15.39 z m 30.77,0 v 15.39 h 15.38 v -15.39 z m 30.77,0 v 15.39 h 15.38 v -15.39 z m 46.15,0 v 15.39 h 15.39 v -15.39 z m 46.16,0 v 15.39 h 15.38 v -15.39 z m 15.38,0 v 15.39 h 15.39 v -15.39 z m -892.31,15.39 v 15.38 h 15.39 v -15.38 z m 46.16,0 v 15.38 h 15.38 v -15.38 z m 30.77,0 v 15.38 h 15.38 v -15.38 z m 15.38,0 v 15.38 h 15.39 v -15.38 z m 15.39,0 v 15.38 H 280 v -15.38 z m 46.15,0 v 15.38 h 15.38 v -15.38 z m 15.38,0 v 15.38 h 15.39 v -15.38 z m 15.39,0 v 15.38 h 15.38 v -15.38 z m 30.77,0 v 15.38 h 15.38 v -15.38 z m 76.92,0 v 15.38 h 15.39 v -15.38 z m 15.39,0 v 15.38 H 480 v -15.38 z m 30.76,0 v 15.38 h 15.39 v -15.38 z m 61.54,0 v 15.38 h 15.39 v -15.38 z m 30.77,0 v 15.38 h 15.39 v -15.38 z m 30.77,0 v 15.38 h 15.39 v -15.38 z m 15.39,0 v 15.38 h 15.38 v -15.38 z m 30.77,0 v 15.38 H 680 v -15.38 z m 15.38,0 v 15.38 h 15.38 v -15.38 z m 30.77,0 v 15.38 h 15.38 v -15.38 z m 15.38,0 v 15.38 h 15.39 v -15.38 z m 30.77,0 v 15.38 h 15.39 v -15.38 z m 30.77,0 v 15.38 h 15.39 v -15.38 z m 46.16,0 v 15.38 h 15.38 v -15.38 z m 15.38,0 v 15.38 h 15.39 v -15.38 z m 15.39,0 v 15.38 H 880 v -15.38 z m 30.76,0 v 15.38 h 15.39 v -15.38 z m 30.77,0 v 15.38 h 15.39 v -15.38 z m 30.77,0 v 15.38 h 15.39 v -15.38 z m 30.77,0 v 15.38 h 15.39 v -15.38 z m 15.39,0 v 15.38 h 15.38 v -15.38 z m 46.15,0 v 15.38 h 15.39 V 741.54 Z M 95.38,756.92 v 15.39 h 15.39 v -15.39 z m 15.39,0 v 15.39 h 15.38 v -15.39 z m 30.77,0 v 15.39 h 15.38 v -15.39 z m 30.77,0 v 15.39 h 15.38 v -15.39 z m 15.38,0 v 15.39 h 15.39 v -15.39 z m 76.93,0 v 15.39 H 280 v -15.39 z m 15.38,0 v 15.39 h 15.38 v -15.39 z m 15.38,0 v 15.39 h 15.39 v -15.39 z m 30.77,0 v 15.39 h 15.39 v -15.39 z m 46.16,0 v 15.39 h 15.38 v -15.39 z m 46.15,0 v 15.39 h 15.39 v -15.39 z m 15.39,0 v 15.39 h 15.38 v -15.39 z m 15.38,0 v 15.39 h 15.39 v -15.39 z m 15.39,0 v 15.39 H 480 v -15.39 z m 15.38,0 v 15.39 h 15.38 v -15.39 z m 15.38,0 v 15.39 h 15.39 v -15.39 z m 15.39,0 v 15.39 h 15.38 v -15.39 z m 15.38,0 v 15.39 h 15.39 v -15.39 z m 15.39,0 v 15.39 h 15.38 v -15.39 z m 15.38,0 v 15.39 h 15.39 v -15.39 z m 30.77,0 v 15.39 h 15.39 v -15.39 z m 46.16,0 v 15.39 h 15.38 v -15.39 z m 46.15,0 v 15.39 h 15.38 v -15.39 z m 15.38,0 v 15.39 h 15.39 v -15.39 z m 46.16,0 v 15.39 h 15.38 v -15.39 z m 46.15,0 v 15.39 h 15.39 v -15.39 z m 30.77,0 v 15.39 h 15.39 v -15.39 z m 15.39,0 v 15.39 h 15.38 v -15.39 z m 46.15,0 v 15.39 h 15.38 v -15.39 z m 15.38,0 v 15.39 h 15.39 v -15.39 z m 15.39,0 v 15.39 h 15.38 v -15.39 z m 15.38,0 v 15.39 h 15.39 v -15.39 z m 76.93,0 v 15.39 h 15.38 v -15.39 z m 30.77,0 v 15.39 h 15.38 v -15.39 z m 30.77,0 v 15.39 H 1080 V 756.92 Z M 80,772.31 v 15.38 h 15.38 v -15.38 z m 15.38,0 v 15.38 h 15.39 v -15.38 z m 30.77,0 v 15.38 h 15.39 v -15.38 z m 15.39,0 v 15.38 h 15.38 v -15.38 z m 153.84,0 v 15.38 h 15.39 v -15.38 z m 30.77,0 v 15.38 h 15.39 v -15.38 z m 30.77,0 v 15.38 h 15.39 v -15.38 z m 15.39,0 v 15.38 h 15.38 v -15.38 z m 46.15,0 v 15.38 h 15.39 v -15.38 z m 15.39,0 v 15.38 h 15.38 v -15.38 z m 61.53,0 v 15.38 h 15.39 v -15.38 z m 15.39,0 v 15.38 h 15.38 v -15.38 z m 46.15,0 v 15.38 h 15.39 v -15.38 z m 15.39,0 v 15.38 h 15.38 v -15.38 z m 46.15,0 v 15.38 h 15.39 v -15.38 z m 15.39,0 v 15.38 h 15.38 v -15.38 z m 61.53,0 v 15.38 h 15.39 v -15.38 z m 46.16,0 v 15.38 h 15.38 v -15.38 z m 15.38,0 v 15.38 h 15.39 v -15.38 z m 30.77,0 v 15.38 h 15.39 v -15.38 z m 15.39,0 v 15.38 h 15.38 v -15.38 z m 61.54,0 v 15.38 H 880 v -15.38 z m 61.53,0 v 15.38 h 15.39 v -15.38 z m 15.39,0 v 15.38 h 15.38 v -15.38 z m 123.08,0 v 15.38 H 1080 V 772.31 Z M 80,787.69 v 15.39 h 15.38 v -15.39 z m 15.38,0 v 15.39 h 15.39 v -15.39 z m 30.77,0 v 15.39 h 15.39 v -15.39 z m 46.16,0 v 15.39 h 15.38 v -15.39 z m 15.38,0 v 15.39 h 15.39 v -15.39 z m 15.39,0 v 15.39 h 15.38 v -15.39 z m 61.54,0 v 15.39 H 280 v -15.39 z m 15.38,0 v 15.39 h 15.38 v -15.39 z m 15.38,0 v 15.39 h 15.39 v -15.39 z m 15.39,0 v 15.39 h 15.38 v -15.39 z m 15.38,0 v 15.39 h 15.39 v -15.39 z m 30.77,0 v 15.39 h 15.39 v -15.39 z m 15.39,0 v 15.39 h 15.38 v -15.39 z m 15.38,0 v 15.39 h 15.39 v -15.39 z m 61.54,0 v 15.39 h 15.39 v -15.39 z m 15.39,0 v 15.39 H 480 v -15.39 z m 30.76,0 v 15.39 h 15.39 v -15.39 z m 76.93,0 v 15.39 h 15.38 v -15.39 z m 76.92,0 v 15.39 h 15.39 v -15.39 z m 76.92,0 v 15.39 h 15.39 v -15.39 z m 30.77,0 v 15.39 h 15.39 v -15.39 z m 76.93,0 v 15.39 h 15.38 v -15.39 z m 15.38,0 v 15.39 h 15.39 v -15.39 z m 30.77,0 v 15.39 h 15.38 v -15.39 z m 46.15,0 v 15.39 h 15.39 v -15.39 z m 15.39,0 v 15.39 h 15.38 v -15.39 z m 30.77,0 v 15.39 h 15.38 v -15.39 z m 15.38,0 v 15.39 h 15.39 v -15.39 z m 30.77,0 v 15.39 h 15.39 v -15.39 z m 30.77,0 v 15.39 h 15.39 v -15.39 z m 15.39,0 v 15.39 H 1080 V 787.69 Z M 80,803.08 v 15.38 h 15.38 v -15.38 z m 15.38,0 v 15.38 h 15.39 v -15.38 z m 15.39,0 v 15.38 h 15.38 v -15.38 z m 30.77,0 v 15.38 h 15.38 v -15.38 z m 92.31,0 v 15.38 h 15.38 v -15.38 z m 46.15,0 v 15.38 h 15.38 v -15.38 z m 30.77,0 v 15.38 h 15.38 v -15.38 z m 15.38,0 v 15.38 h 15.39 v -15.38 z m 107.7,0 v 15.38 h 15.38 v -15.38 z m 15.38,0 v 15.38 h 15.39 v -15.38 z m 15.39,0 v 15.38 H 480 v -15.38 z m 15.38,0 v 15.38 h 15.38 v -15.38 z m 61.54,0 v 15.38 h 15.38 v -15.38 z m 46.15,0 v 15.38 h 15.39 v -15.38 z m 30.77,0 v 15.38 h 15.39 v -15.38 z m 61.54,0 v 15.38 h 15.38 v -15.38 z m 61.54,0 v 15.38 h 15.38 v -15.38 z m 15.38,0 v 15.38 h 15.39 v -15.38 z m 15.39,0 v 15.38 h 15.38 v -15.38 z m 61.54,0 v 15.38 h 15.38 v -15.38 z m 76.92,0 v 15.38 h 15.38 v -15.38 z m 15.38,0 v 15.38 h 15.39 v -15.38 z m 15.39,0 v 15.38 h 15.38 v -15.38 z m 15.38,0 v 15.38 h 15.39 v -15.38 z m 46.16,0 v 15.38 h 15.38 v -15.38 z m 15.38,0 v 15.38 h 15.39 v -15.38 z m 15.39,0 v 15.38 h 15.38 v -15.38 z m 30.77,0 v 15.38 H 1080 v -15.38 z m -953.85,15.38 v 15.39 h 15.38 v -15.39 z m 46.15,0 v 15.39 h 15.39 v -15.39 z m 15.39,0 v 15.39 h 15.38 v -15.39 z m 30.77,0 v 15.39 h 15.38 v -15.39 z m 46.15,0 v 15.39 h 15.39 v -15.39 z m 15.39,0 v 15.39 H 280 v -15.39 z m 61.53,0 v 15.39 h 15.39 v -15.39 z m 15.39,0 v 15.39 h 15.38 v -15.39 z m 46.15,0 v 15.39 h 15.39 v -15.39 z m 15.39,0 v 15.39 h 15.38 v -15.39 z m 46.15,0 v 15.39 h 15.39 v -15.39 z m 15.39,0 v 15.39 H 480 v -15.39 z m 30.76,0 v 15.39 h 15.39 v -15.39 z m 15.39,0 v 15.39 h 15.38 v -15.39 z m 15.38,0 v 15.39 h 15.39 v -15.39 z m 46.16,0 v 15.39 h 15.38 v -15.39 z m 15.38,0 v 15.39 h 15.39 v -15.39 z m 15.39,0 v 15.39 h 15.38 v -15.39 z m 15.38,0 v 15.39 h 15.39 v -15.39 z m 15.39,0 v 15.39 h 15.38 v -15.39 z m 30.77,0 v 15.39 H 680 v -15.39 z m 15.38,0 v 15.39 h 15.38 v -15.39 z m 15.38,0 v 15.39 h 15.39 v -15.39 z m 15.39,0 v 15.39 h 15.38 v -15.39 z m 15.38,0 v 15.39 h 15.39 v -15.39 z m 15.39,0 v 15.39 h 15.38 v -15.39 z m 15.38,0 v 15.39 h 15.39 v -15.39 z m 15.39,0 v 15.39 h 15.38 v -15.39 z m 15.38,0 v 15.39 h 15.39 v -15.39 z m 30.77,0 v 15.39 h 15.39 v -15.39 z m 46.16,0 v 15.39 H 880 v -15.39 z m 15.38,0 v 15.39 h 15.38 v -15.39 z m 61.54,0 v 15.39 h 15.38 v -15.39 z m 15.38,0 v 15.39 h 15.39 v -15.39 z m 46.16,0 v 15.39 h 15.38 v -15.39 z m 15.38,0 v 15.39 h 15.39 v -15.39 z m 46.16,0 v 15.39 H 1080 V 818.46 Z M 80,833.85 v 15.38 h 15.38 v -15.38 z m 15.38,0 v 15.38 h 15.39 v -15.38 z m 30.77,0 v 15.38 h 15.39 v -15.38 z m 30.77,0 v 15.38 h 15.39 v -15.38 z m 46.16,0 v 15.38 h 15.38 v -15.38 z m 30.77,0 v 15.38 h 15.38 v -15.38 z m 46.15,0 v 15.38 h 15.38 v -15.38 z m 46.15,0 v 15.38 h 15.39 v -15.38 z m 61.54,0 v 15.38 h 15.39 v -15.38 z m 15.39,0 v 15.38 h 15.38 v -15.38 z m 30.77,0 v 15.38 h 15.38 v -15.38 z m 30.77,0 v 15.38 H 480 v -15.38 z m 15.38,0 v 15.38 h 15.38 v -15.38 z m 15.38,0 v 15.38 h 15.39 v -15.38 z m 30.77,0 v 15.38 h 15.39 v -15.38 z m 15.39,0 v 15.38 h 15.38 v -15.38 z m 15.38,0 v 15.38 h 15.39 v -15.38 z m 46.16,0 v 15.38 h 15.38 v -15.38 z m 107.69,0 v 15.38 h 15.38 v -15.38 z m 15.38,0 v 15.38 h 15.39 v -15.38 z m 15.39,0 v 15.38 h 15.38 v -15.38 z m 15.38,0 v 15.38 h 15.39 v -15.38 z m 30.77,0 v 15.38 h 15.39 v -15.38 z m 30.77,0 v 15.38 h 15.39 v -15.38 z m 15.39,0 v 15.38 h 15.38 v -15.38 z m 30.77,0 v 15.38 H 880 v -15.38 z m 15.38,0 v 15.38 h 15.38 v -15.38 z m 15.38,0 v 15.38 h 15.39 v -15.38 z m 15.39,0 v 15.38 h 15.38 v -15.38 z m 15.38,0 v 15.38 h 15.39 v -15.38 z m 15.39,0 v 15.38 h 15.38 v -15.38 z m 46.15,0 v 15.38 h 15.39 v -15.38 z m 15.39,0 v 15.38 h 15.38 v -15.38 z m 30.77,0 v 15.38 h 15.38 V 833.85 Z M 80,849.23 v 15.39 h 15.38 v -15.39 z m 46.15,0 v 15.39 h 15.39 v -15.39 z m 15.39,0 v 15.39 h 15.38 v -15.39 z m 15.38,0 v 15.39 h 15.39 v -15.39 z m 15.39,0 v 15.39 h 15.38 v -15.39 z m 30.77,0 v 15.39 h 15.38 v -15.39 z m 30.77,0 v 15.39 h 15.38 v -15.39 z m 15.38,0 v 15.39 h 15.39 v -15.39 z m 15.39,0 v 15.39 H 280 v -15.39 z m 46.15,0 v 15.39 h 15.38 v -15.39 z m 30.77,0 v 15.39 h 15.38 v -15.39 z m 30.77,0 v 15.39 h 15.38 v -15.39 z m 15.38,0 v 15.39 h 15.39 v -15.39 z m 46.16,0 v 15.39 h 15.38 v -15.39 z m 15.38,0 v 15.39 h 15.39 v -15.39 z m 30.77,0 v 15.39 h 15.38 v -15.39 z m 30.77,0 v 15.39 h 15.38 v -15.39 z m 15.38,0 v 15.39 h 15.39 v -15.39 z m 46.16,0 v 15.39 h 15.38 v -15.39 z m 30.77,0 v 15.39 h 15.38 v -15.39 z m 15.38,0 v 15.39 h 15.39 v -15.39 z m 15.39,0 v 15.39 h 15.38 v -15.39 z m 61.53,0 v 15.39 h 15.39 v -15.39 z m 15.39,0 v 15.39 h 15.38 v -15.39 z m 76.92,0 v 15.39 h 15.39 v -15.39 z m 30.77,0 v 15.39 h 15.39 v -15.39 z m 30.77,0 v 15.39 h 15.39 v -15.39 z m 30.77,0 v 15.39 h 15.38 v -15.39 z m 15.38,0 v 15.39 h 15.39 v -15.39 z m 92.31,0 v 15.39 h 15.39 v -15.39 z m 15.39,0 v 15.39 h 15.38 v -15.39 z m 30.77,0 v 15.39 h 15.38 v -15.39 z m 30.77,0 v 15.39 H 1080 V 849.23 Z M 95.38,864.62 V 880 h 15.39 v -15.38 z m 15.39,0 V 880 h 15.38 v -15.38 z m 15.38,0 V 880 h 15.39 v -15.38 z m 30.77,0 V 880 h 15.39 v -15.38 z m 46.16,0 V 880 h 15.38 v -15.38 z m 30.77,0 V 880 h 15.38 v -15.38 z m 76.92,0 V 880 h 15.38 v -15.38 z m 30.77,0 V 880 h 15.38 v -15.38 z m 46.15,0 V 880 h 15.39 v -15.38 z m 15.39,0 V 880 h 15.38 v -15.38 z m 30.77,0 V 880 h 15.38 v -15.38 z m 15.38,0 V 880 h 15.39 v -15.38 z m 61.54,0 V 880 h 15.38 v -15.38 z m 46.15,0 V 880 h 15.39 v -15.38 z m 30.77,0 V 880 h 15.39 v -15.38 z m 15.39,0 V 880 h 15.38 v -15.38 z m 46.15,0 V 880 h 15.39 v -15.38 z m 30.77,0 V 880 h 15.38 v -15.38 z m 15.38,0 V 880 h 15.39 v -15.38 z m 15.39,0 V 880 h 15.38 v -15.38 z m 15.38,0 V 880 h 15.39 v -15.38 z m 46.16,0 V 880 h 15.38 v -15.38 z m 30.77,0 V 880 h 15.38 v -15.38 z m 15.38,0 V 880 h 15.39 v -15.38 z m 46.16,0 V 880 H 880 v -15.38 z m 61.53,0 V 880 h 15.39 v -15.38 z m 15.39,0 V 880 h 15.38 v -15.38 z m 30.77,0 V 880 h 15.38 v -15.38 z m 15.38,0 V 880 h 15.39 v -15.38 z m 15.39,0 V 880 h 15.38 v -15.38 z m 46.15,0 V 880 h 15.39 v -15.38 z m 15.39,0 V 880 H 1080 V 864.62 Z M 172.31,880 v 15.38 h 15.38 V 880 Z m 30.77,0 v 15.38 h 15.38 V 880 Z m 46.15,0 v 15.38 h 15.39 V 880 Z m 15.39,0 v 15.38 H 280 V 880 Z m 46.15,0 v 15.38 h 15.38 V 880 Z m 61.54,0 v 15.38 h 15.38 V 880 Z m 15.38,0 v 15.38 h 15.39 V 880 Z m 15.39,0 v 15.38 h 15.38 V 880 Z m 15.38,0 v 15.38 h 15.39 V 880 Z m 30.77,0 v 15.38 h 15.39 V 880 Z m 15.39,0 v 15.38 H 480 V 880 Z m 76.92,0 v 15.38 h 15.38 V 880 Z m 15.38,0 v 15.38 h 15.39 V 880 Z m 15.39,0 v 15.38 h 15.38 V 880 Z m 30.77,0 v 15.38 h 15.38 V 880 Z m 15.38,0 v 15.38 h 15.39 V 880 Z m 15.39,0 v 15.38 h 15.38 V 880 Z m 15.38,0 v 15.38 h 15.39 V 880 Z m 15.39,0 v 15.38 H 680 V 880 Z m 15.38,0 v 15.38 h 15.38 V 880 Z m 46.15,0 v 15.38 h 15.39 V 880 Z m 30.77,0 v 15.38 h 15.39 V 880 Z m 15.39,0 v 15.38 h 15.38 V 880 Z m 15.38,0 v 15.38 h 15.39 V 880 Z m 15.39,0 v 15.38 h 15.38 V 880 Z m 15.38,0 v 15.38 h 15.39 V 880 Z m 15.39,0 v 15.38 h 15.38 V 880 Z m 15.38,0 v 15.38 h 15.39 V 880 Z m 46.15,0 v 15.38 h 15.39 V 880 Z m 15.39,0 v 15.38 h 15.38 V 880 Z m 15.38,0 v 15.38 h 15.39 V 880 Z m 15.39,0 v 15.38 h 15.38 V 880 Z m 15.38,0 v 15.38 h 15.39 V 880 Z m 15.39,0 v 15.38 h 15.38 V 880 Z m 30.77,0 v 15.38 h 15.38 V 880 Z m 30.77,0 v 15.38 h 15.38 V 880 Z m 15.38,0 v 15.38 h 15.39 V 880 Z M 80,895.38 v 15.39 h 15.38 v -15.39 z m 15.38,0 v 15.39 h 15.39 v -15.39 z m 15.39,0 v 15.39 h 15.38 v -15.39 z m 46.15,0 v 15.39 h 15.39 v -15.39 z m 46.16,0 v 15.39 h 15.38 v -15.39 z m 30.77,0 v 15.39 h 15.38 v -15.39 z m 15.38,0 v 15.39 h 15.39 v -15.39 z m 30.77,0 v 15.39 h 15.38 v -15.39 z m 30.77,0 v 15.39 h 15.38 v -15.39 z m 15.38,0 v 15.39 h 15.39 v -15.39 z m 15.39,0 v 15.39 h 15.38 v -15.39 z m 107.69,0 v 15.39 h 15.39 v -15.39 z m 30.77,0 v 15.39 h 15.38 v -15.39 z m 15.38,0 v 15.39 h 15.39 v -15.39 z m 15.39,0 v 15.39 h 15.38 v -15.39 z m 30.77,0 v 15.39 h 15.38 v -15.39 z m 30.77,0 v 15.39 h 15.38 v -15.39 z m 46.15,0 v 15.39 h 15.39 v -15.39 z m 46.16,0 v 15.39 H 680 v -15.39 z m 46.15,0 v 15.39 h 15.38 v -15.39 z m 30.77,0 v 15.39 h 15.38 v -15.39 z m 15.38,0 v 15.39 h 15.39 v -15.39 z m 15.39,0 v 15.39 h 15.38 v -15.39 z m 15.38,0 v 15.39 h 15.39 v -15.39 z m 61.54,0 v 15.39 h 15.39 v -15.39 z m 61.54,0 v 15.39 h 15.38 v -15.39 z m 76.92,0 v 15.39 h 15.39 v -15.39 z m 15.39,0 v 15.39 h 15.38 v -15.39 z m 15.38,0 v 15.39 h 15.39 v -15.39 z m 46.16,0 v 15.39 H 1080 v -15.39 z m -953.85,15.39 v 15.38 h 15.38 v -15.38 z m 15.38,0 v 15.38 h 15.39 v -15.38 z m 30.77,0 v 15.38 h 15.39 v -15.38 z m 15.39,0 v 15.38 h 15.38 v -15.38 z m 15.38,0 v 15.38 h 15.39 v -15.38 z m 15.39,0 v 15.38 h 15.38 v -15.38 z m 30.77,0 v 15.38 h 15.38 v -15.38 z m 30.77,0 v 15.38 H 280 v -15.38 z m 123.07,0 v 15.38 h 15.39 v -15.38 z m 30.77,0 v 15.38 h 15.39 v -15.38 z m 76.92,0 v 15.38 h 15.39 v -15.38 z m 61.54,0 v 15.38 h 15.39 v -15.38 z m 107.7,0 v 15.38 H 680 v -15.38 z m 61.53,0 v 15.38 h 15.39 v -15.38 z m 15.39,0 v 15.38 h 15.38 v -15.38 z m 15.38,0 v 15.38 h 15.39 v -15.38 z m 46.16,0 v 15.38 h 15.38 v -15.38 z m 15.38,0 v 15.38 h 15.39 v -15.38 z m 107.69,0 v 15.38 h 15.39 v -15.38 z m 123.08,0 v 15.38 h 15.39 v -15.38 z m 15.39,0 v 15.38 H 1080 V 910.77 Z M 80,926.15 v 15.39 h 15.38 v -15.39 z m 46.15,0 v 15.39 h 15.39 v -15.39 z m 92.31,0 v 15.39 h 15.39 v -15.39 z m 15.39,0 v 15.39 h 15.38 v -15.39 z m 15.38,0 v 15.39 h 15.39 v -15.39 z m 15.39,0 v 15.39 H 280 v -15.39 z m 153.84,0 v 15.39 h 15.39 v -15.39 z m 15.39,0 v 15.39 h 15.38 v -15.39 z m 15.38,0 v 15.39 h 15.39 v -15.39 z m 15.39,0 v 15.39 H 480 v -15.39 z m 61.53,0 v 15.39 h 15.39 v -15.39 z m 46.16,0 v 15.39 h 15.38 v -15.39 z m 15.38,0 v 15.39 h 15.39 v -15.39 z m 15.39,0 v 15.39 h 15.38 v -15.39 z m 46.15,0 v 15.39 h 15.39 v -15.39 z m 15.39,0 v 15.39 H 680 v -15.39 z m 30.76,0 v 15.39 h 15.39 v -15.39 z m 30.77,0 v 15.39 h 15.39 v -15.39 z m 15.39,0 v 15.39 h 15.38 v -15.39 z m 30.77,0 v 15.39 h 15.38 v -15.39 z m 15.38,0 v 15.39 h 15.39 v -15.39 z m 92.31,0 v 15.39 h 15.38 v -15.39 z m 15.38,0 v 15.39 h 15.39 v -15.39 z m 15.39,0 v 15.39 h 15.38 v -15.39 z m 46.15,0 v 15.39 h 15.39 v -15.39 z m 15.39,0 v 15.39 h 15.38 v -15.39 z m 15.38,0 v 15.39 h 15.39 v -15.39 z m 30.77,0 v 15.39 h 15.39 v -15.39 z m 15.39,0 v 15.39 h 15.38 v -15.39 z m 15.38,0 v 15.39 h 15.39 V 926.15 Z M 95.38,941.54 v 15.38 h 15.39 v -15.38 z m 15.39,0 v 15.38 h 15.38 v -15.38 z m 30.77,0 v 15.38 h 15.38 v -15.38 z m 30.77,0 v 15.38 h 15.38 v -15.38 z m 15.38,0 v 15.38 h 15.39 v -15.38 z m 15.39,0 v 15.38 h 15.38 v -15.38 z m 30.77,0 v 15.38 h 15.38 v -15.38 z m 76.92,0 v 15.38 h 15.38 v -15.38 z m 15.38,0 v 15.38 h 15.39 v -15.38 z m 15.39,0 v 15.38 h 15.38 v -15.38 z m 15.38,0 v 15.38 h 15.39 v -15.38 z m 76.93,0 v 15.38 h 15.38 v -15.38 z m 92.3,0 v 15.38 h 15.39 v -15.38 z m 15.39,0 v 15.38 h 15.38 v -15.38 z m 15.38,0 v 15.38 h 15.39 v -15.38 z m 15.39,0 v 15.38 h 15.38 v -15.38 z m 15.38,0 v 15.38 h 15.39 v -15.38 z m 15.39,0 v 15.38 h 15.38 v -15.38 z m 15.38,0 v 15.38 h 15.39 v -15.38 z m 46.16,0 v 15.38 H 680 v -15.38 z m 30.76,0 v 15.38 h 15.39 v -15.38 z m 30.77,0 v 15.38 h 15.39 v -15.38 z m 15.39,0 v 15.38 h 15.38 v -15.38 z m 15.38,0 v 15.38 h 15.39 v -15.38 z m 30.77,0 v 15.38 h 15.39 v -15.38 z m 92.31,0 v 15.38 h 15.38 v -15.38 z m 46.15,0 v 15.38 h 15.39 v -15.38 z m 15.39,0 v 15.38 h 15.38 v -15.38 z m 15.38,0 v 15.38 h 15.39 v -15.38 z m 15.39,0 v 15.38 h 15.38 v -15.38 z m 15.38,0 v 15.38 h 15.39 v -15.38 z m 15.39,0 v 15.38 h 15.38 v -15.38 z m 15.38,0 v 15.38 h 15.39 v -15.38 z m 30.77,0 v 15.38 h 15.39 v -15.38 z m -846.15,15.38 v 15.39 h 15.38 v -15.39 z m 61.54,0 v 15.39 H 280 v -15.39 z m 61.53,0 v 15.39 h 15.39 v -15.39 z m 30.77,0 v 15.39 h 15.39 v -15.39 z m 15.39,0 v 15.39 h 15.38 v -15.39 z m 30.77,0 v 15.39 h 15.38 v -15.39 z m 15.38,0 v 15.39 h 15.39 v -15.39 z m 15.39,0 v 15.39 h 15.38 v -15.39 z m 15.38,0 v 15.39 h 15.39 v -15.39 z m 92.31,0 v 15.39 h 15.38 v -15.39 z m 61.54,0 v 15.39 h 15.38 v -15.39 z m 30.77,0 v 15.39 h 15.38 v -15.39 z m 46.15,0 v 15.39 h 15.38 v -15.39 z m 15.38,0 v 15.39 h 15.39 v -15.39 z m 30.77,0 v 15.39 h 15.39 v -15.39 z m 15.39,0 v 15.39 h 15.38 v -15.39 z m 30.77,0 v 15.39 h 15.38 v -15.39 z m 15.38,0 v 15.39 h 15.39 v -15.39 z m 15.39,0 v 15.39 h 15.38 v -15.39 z m 46.15,0 v 15.39 h 15.39 v -15.39 z m 15.39,0 v 15.39 H 880 v -15.39 z m 30.76,0 v 15.39 h 15.39 v -15.39 z m 15.39,0 v 15.39 h 15.38 v -15.39 z m 15.38,0 v 15.39 h 15.39 v -15.39 z m 15.39,0 v 15.39 h 15.38 v -15.39 z m 61.54,0 v 15.39 h 15.38 v -15.39 z m 46.15,0 v 15.39 h 15.39 v -15.39 z m 15.39,0 v 15.39 H 1080 V 956.92 Z M 80,972.31 v 15.38 h 15.38 v -15.38 z m 15.38,0 v 15.38 h 15.39 v -15.38 z m 15.39,0 v 15.38 h 15.38 v -15.38 z m 15.38,0 v 15.38 h 15.39 v -15.38 z m 15.39,0 v 15.38 h 15.38 v -15.38 z m 15.38,0 v 15.38 h 15.39 v -15.38 z m 15.39,0 v 15.38 h 15.38 v -15.38 z m 61.54,0 v 15.38 h 15.38 v -15.38 z m 46.15,0 v 15.38 h 15.38 v -15.38 z m 15.38,0 v 15.38 h 15.39 v -15.38 z m 15.39,0 v 15.38 h 15.38 v -15.38 z m 15.38,0 v 15.38 h 15.39 v -15.38 z m 46.16,0 v 15.38 h 15.38 v -15.38 z m 46.15,0 v 15.38 h 15.39 v -15.38 z m 30.77,0 v 15.38 h 15.39 v -15.38 z m 15.39,0 v 15.38 H 480 v -15.38 z m 30.76,0 v 15.38 h 15.39 v -15.38 z m 46.16,0 v 15.38 h 15.38 v -15.38 z m 30.77,0 v 15.38 h 15.38 v -15.38 z m 30.77,0 v 15.38 h 15.38 v -15.38 z m 30.77,0 v 15.38 h 15.38 v -15.38 z m 15.38,0 v 15.38 h 15.39 v -15.38 z m 15.39,0 v 15.38 H 680 v -15.38 z m 15.38,0 v 15.38 h 15.38 v -15.38 z m 30.77,0 v 15.38 h 15.38 v -15.38 z m 15.38,0 v 15.38 h 15.39 v -15.38 z m 76.93,0 v 15.38 h 15.38 v -15.38 z m 30.77,0 v 15.38 h 15.38 v -15.38 z m 15.38,0 v 15.38 h 15.39 v -15.38 z m 46.15,0 v 15.38 h 15.39 v -15.38 z m 15.39,0 v 15.38 h 15.38 v -15.38 z m 30.77,0 v 15.38 h 15.38 v -15.38 z m 30.77,0 v 15.38 h 15.38 v -15.38 z m 30.77,0 v 15.38 h 15.38 v -15.38 z m 15.38,0 v 15.38 h 15.39 v -15.38 z m 46.16,0 v 15.38 H 1080 V 972.31 Z M 80,987.69 v 15.39 h 15.38 v -15.39 z m 92.31,0 v 15.39 h 15.38 v -15.39 z m 30.77,0 v 15.39 h 15.38 v -15.39 z m 61.54,0 v 15.39 H 280 v -15.39 z m 15.38,0 v 15.39 h 15.38 v -15.39 z m 30.77,0 v 15.39 h 15.38 v -15.39 z m 15.38,0 v 15.39 h 15.39 v -15.39 z m 30.77,0 v 15.39 h 15.39 v -15.39 z m 15.39,0 v 15.39 h 15.38 v -15.39 z m 15.38,0 v 15.39 h 15.39 v -15.39 z m 61.54,0 v 15.39 h 15.39 v -15.39 z m 15.39,0 v 15.39 H 480 v -15.39 z m 15.38,0 v 15.39 h 15.38 v -15.39 z m 46.15,0 v 15.39 h 15.39 v -15.39 z m 15.39,0 v 15.39 h 15.38 v -15.39 z m 61.54,0 v 15.39 h 15.38 v -15.39 z m 15.38,0 v 15.39 h 15.39 v -15.39 z m 92.31,0 v 15.39 h 15.38 v -15.39 z m 15.38,0 v 15.39 h 15.39 v -15.39 z m 76.93,0 v 15.39 h 15.38 v -15.39 z m 92.3,0 v 15.39 h 15.39 v -15.39 z m 15.39,0 v 15.39 h 15.38 v -15.39 z m 15.38,0 v 15.39 h 15.39 v -15.39 z m 15.39,0 v 15.39 h 15.38 v -15.39 z m 61.54,0 v 15.39 h 15.38 v -15.39 z m 15.38,0 v 15.39 h 15.39 v -15.39 z m 30.77,0 v 15.39 h 15.39 V 987.69 Z M 80,1003.08 v 15.38 h 15.38 v -15.38 z m 30.77,0 v 15.38 h 15.38 v -15.38 z m 15.38,0 v 15.38 h 15.39 v -15.38 z m 15.39,0 v 15.38 h 15.38 v -15.38 z m 30.77,0 v 15.38 h 15.38 v -15.38 z m 46.15,0 v 15.38 h 15.39 v -15.38 z m 15.39,0 v 15.38 h 15.38 v -15.38 z m 15.38,0 v 15.38 h 15.39 v -15.38 z m 15.39,0 v 15.38 H 280 v -15.38 z m 15.38,0 v 15.38 h 15.38 v -15.38 z m 30.77,0 v 15.38 h 15.38 v -15.38 z m 15.38,0 v 15.38 h 15.39 v -15.38 z m 15.39,0 v 15.38 h 15.38 v -15.38 z m 30.77,0 v 15.38 h 15.38 v -15.38 z m 15.38,0 v 15.38 h 15.39 v -15.38 z m 15.39,0 v 15.38 h 15.38 v -15.38 z m 30.77,0 v 15.38 h 15.38 v -15.38 z m 15.38,0 v 15.38 h 15.39 v -15.38 z m 46.15,0 v 15.38 h 15.39 v -15.38 z m 15.39,0 v 15.38 h 15.38 v -15.38 z m 15.38,0 v 15.38 h 15.39 v -15.38 z m 15.39,0 v 15.38 h 15.38 v -15.38 z m 15.38,0 v 15.38 h 15.39 v -15.38 z m 15.39,0 v 15.38 h 15.38 v -15.38 z m 15.38,0 v 15.38 h 15.39 v -15.38 z m 15.39,0 v 15.38 h 15.38 v -15.38 z m 92.3,0 v 15.38 h 15.39 v -15.38 z m 30.77,0 v 15.38 h 15.39 v -15.38 z m 61.54,0 v 15.38 h 15.39 v -15.38 z m 61.54,0 v 15.38 h 15.39 v -15.38 z m 61.54,0 v 15.38 h 15.38 v -15.38 z m 30.77,0 v 15.38 h 15.38 v -15.38 z m 15.38,0 v 15.38 h 15.39 v -15.38 z m 15.39,0 v 15.38 h 15.38 v -15.38 z m 15.38,0 v 15.38 h 15.39 v -15.38 z m 15.39,0 v 15.38 h 15.38 v -15.38 z m 30.77,0 v 15.38 h 15.38 v -15.38 z m 15.38,0 v 15.38 h 15.39 v -15.38 z m 15.39,0 v 15.38 H 1080 v -15.38 z M 80,1018.46 v 15.39 h 15.38 v -15.39 z m 30.77,0 v 15.39 h 15.38 v -15.39 z m 15.38,0 v 15.39 h 15.39 v -15.39 z m 15.39,0 v 15.39 h 15.38 v -15.39 z m 30.77,0 v 15.39 h 15.38 v -15.39 z m 46.15,0 v 15.39 h 15.39 v -15.39 z m 15.39,0 v 15.39 h 15.38 v -15.39 z m 61.53,0 v 15.39 h 15.39 v -15.39 z m 30.77,0 v 15.39 h 15.39 v -15.39 z m 15.39,0 v 15.39 h 15.38 v -15.39 z m 15.38,0 v 15.39 h 15.39 v -15.39 z m 15.39,0 v 15.39 h 15.38 v -15.39 z m 61.54,0 v 15.39 h 15.38 v -15.39 z m 15.38,0 v 15.39 h 15.39 v -15.39 z m 15.39,0 v 15.39 H 480 v -15.39 z m 30.76,0 v 15.39 h 15.39 v -15.39 z m 46.16,0 v 15.39 h 15.38 v -15.39 z m 15.38,0 v 15.39 h 15.39 v -15.39 z m 15.39,0 v 15.39 h 15.38 v -15.39 z m 61.54,0 v 15.39 h 15.38 v -15.39 z m 15.38,0 v 15.39 h 15.39 v -15.39 z m 46.15,0 v 15.39 h 15.39 v -15.39 z m 15.39,0 v 15.39 h 15.38 v -15.39 z m 30.77,0 v 15.39 h 15.38 v -15.39 z m 46.15,0 v 15.39 h 15.39 v -15.39 z m 30.77,0 v 15.39 h 15.39 v -15.39 z m 61.54,0 v 15.39 h 15.38 v -15.39 z m 30.77,0 v 15.39 h 15.38 v -15.39 z m 15.38,0 v 15.39 h 15.39 v -15.39 z m 15.39,0 v 15.39 h 15.38 v -15.39 z m 15.38,0 v 15.39 h 15.39 v -15.39 z m 30.77,0 v 15.39 h 15.39 v -15.39 z m 15.39,0 v 15.39 h 15.38 v -15.39 z m 30.77,0 v 15.39 h 15.38 v -15.39 z m 30.77,0 v 15.39 H 1080 v -15.39 z M 80,1033.85 v 15.38 h 15.38 v -15.38 z m 30.77,0 v 15.38 h 15.38 v -15.38 z m 15.38,0 v 15.38 h 15.39 v -15.38 z m 15.39,0 v 15.38 h 15.38 v -15.38 z m 30.77,0 v 15.38 h 15.38 v -15.38 z m 61.54,0 v 15.38 h 15.38 v -15.38 z m 15.38,0 v 15.38 h 15.39 v -15.38 z m 15.39,0 v 15.38 H 280 v -15.38 z m 153.84,0 v 15.38 h 15.39 v -15.38 z m 15.39,0 v 15.38 h 15.38 v -15.38 z m 46.15,0 v 15.38 h 15.38 v -15.38 z m 46.15,0 v 15.38 h 15.39 v -15.38 z m 15.39,0 v 15.38 h 15.38 v -15.38 z m 30.77,0 v 15.38 h 15.38 v -15.38 z m 15.38,0 v 15.38 h 15.39 v -15.38 z m 30.77,0 v 15.38 h 15.39 v -15.38 z m 15.39,0 v 15.38 h 15.38 v -15.38 z m 15.38,0 v 15.38 h 15.39 v -15.38 z m 61.54,0 v 15.38 h 15.38 v -15.38 z m 46.15,0 v 15.38 h 15.39 v -15.38 z m 15.39,0 v 15.38 h 15.38 v -15.38 z m 30.77,0 v 15.38 h 15.38 v -15.38 z m 46.15,0 v 15.38 h 15.39 v -15.38 z m 30.77,0 v 15.38 h 15.38 v -15.38 z m 30.77,0 v 15.38 h 15.38 v -15.38 z m 30.77,0 v 15.38 h 15.38 v -15.38 z m 30.77,0 v 15.38 h 15.38 v -15.38 z m 15.38,0 v 15.38 h 15.39 v -15.38 z m 46.16,0 v 15.38 h 15.38 v -15.38 z M 80,1049.23 v 15.39 h 15.38 v -15.39 z m 92.31,0 v 15.39 h 15.38 v -15.39 z m 46.15,0 v 15.39 h 15.39 v -15.39 z m 15.39,0 v 15.39 h 15.38 v -15.39 z m 15.38,0 v 15.39 h 15.39 v -15.39 z m 30.77,0 v 15.39 h 15.38 v -15.39 z m 15.38,0 v 15.39 h 15.39 v -15.39 z m 30.77,0 v 15.39 h 15.39 v -15.39 z m 30.77,0 v 15.39 h 15.39 v -15.39 z m 76.93,0 v 15.39 h 15.38 v -15.39 z m 30.77,0 v 15.39 H 480 v -15.39 z m 15.38,0 v 15.39 h 15.38 v -15.39 z m 15.38,0 v 15.39 h 15.39 v -15.39 z m 92.31,0 v 15.39 h 15.39 v -15.39 z m 15.39,0 v 15.39 h 15.38 v -15.39 z m 15.38,0 v 15.39 h 15.39 v -15.39 z m 30.77,0 v 15.39 h 15.39 v -15.39 z m 30.77,0 v 15.39 h 15.38 v -15.39 z m 15.38,0 v 15.39 h 15.39 v -15.39 z m 15.39,0 v 15.39 h 15.38 v -15.39 z m 76.92,0 v 15.39 h 15.39 v -15.39 z m 30.77,0 v 15.39 h 15.39 v -15.39 z m 30.77,0 v 15.39 h 15.39 v -15.39 z m 15.39,0 v 15.39 H 880 v -15.39 z m 61.53,0 v 15.39 h 15.39 v -15.39 z m 46.16,0 v 15.39 h 15.38 v -15.39 z m 46.15,0 v 15.39 h 15.39 v -15.39 z m 30.77,0 v 15.39 h 15.39 v -15.39 z m 15.39,0 v 15.39 H 1080 v -15.39 z M 80,1064.62 V 1080 h 15.38 v -15.38 z m 15.38,0 V 1080 h 15.39 v -15.38 z m 15.39,0 V 1080 h 15.38 v -15.38 z m 15.38,0 V 1080 h 15.39 v -15.38 z m 15.39,0 V 1080 h 15.38 v -15.38 z m 15.38,0 V 1080 h 15.39 v -15.38 z m 15.39,0 V 1080 h 15.38 v -15.38 z m 46.15,0 V 1080 h 15.39 v -15.38 z m 46.16,0 V 1080 H 280 v -15.38 z m 15.38,0 V 1080 h 15.38 v -15.38 z m 15.38,0 V 1080 h 15.39 v -15.38 z m 15.39,0 V 1080 h 15.38 v -15.38 z m 30.77,0 V 1080 h 15.38 v -15.38 z m 15.38,0 V 1080 h 15.39 v -15.38 z m 30.77,0 V 1080 h 15.39 v -15.38 z m 15.39,0 V 1080 h 15.38 v -15.38 z m 61.54,0 V 1080 H 480 v -15.38 z m 15.38,0 V 1080 h 15.38 v -15.38 z m 61.54,0 V 1080 h 15.38 v -15.38 z m 15.38,0 V 1080 h 15.39 v -15.38 z m 15.39,0 V 1080 h 15.38 v -15.38 z m 15.38,0 V 1080 h 15.39 v -15.38 z m 76.93,0 V 1080 H 680 v -15.38 z m 46.15,0 V 1080 h 15.38 v -15.38 z m 15.38,0 V 1080 h 15.39 v -15.38 z m 15.39,0 V 1080 h 15.38 v -15.38 z m 15.38,0 V 1080 h 15.39 v -15.38 z m 92.31,0 V 1080 h 15.39 v -15.38 z m 46.15,0 V 1080 h 15.39 v -15.38 z m 15.39,0 V 1080 h 15.38 v -15.38 z m 15.38,0 V 1080 h 15.39 v -15.38 z m 15.39,0 V 1080 h 15.38 v -15.38 z m 76.92,0 V 1080 h 15.39 v -15.38 z m 15.39,0 V 1080 h 15.38 v -15.38 z" id="path24" inkscape:connector-curvature="0"/>
</svg>